<svg width="1440" height="1024" viewBox="0 0 1440 1024" fill="none" xmlns="http://www.w3.org/2000/svg">
<ellipse opacity="0.06" cx="1272.57" cy="942.897" rx="169.434" ry="162.103" fill="#4285F4"/>
<path d="M1410.32 913.324C1410.32 995.498 1340.76 1062.15 1254.91 1062.15C1169.06 1062.15 1099.5 995.498 1099.5 913.324C1099.5 831.151 1169.06 764.5 1254.91 764.5C1340.76 764.5 1410.32 831.151 1410.32 913.324Z" stroke="#BDBDBD"/>
<path d="M1416.71 920.444C1416.71 1002.31 1347.23 1068.72 1261.48 1068.72C1175.74 1068.72 1106.26 1002.31 1106.26 920.444C1106.26 838.574 1175.74 772.167 1261.48 772.167C1347.23 772.167 1416.71 838.574 1416.71 920.444Z" stroke="#BDBDBD"/>
<g opacity="0.06" filter="url(#filter0_d_2846_1357)">
<ellipse cx="1041.88" cy="146.713" rx="113.12" ry="110.287" fill="url(#paint0_diamond_2846_1357)"/>
</g>
<path d="M1133.68 126.593C1133.68 182.414 1087.31 227.686 1030.09 227.686C972.868 227.686 926.5 182.414 926.5 126.593C926.5 70.7723 972.868 25.5 1030.09 25.5C1087.31 25.5 1133.68 70.7723 1133.68 126.593Z" stroke="#BDBDBD"/>
<path d="M1137.95 131.436C1137.95 187.05 1091.64 232.157 1034.48 232.157C977.325 232.157 931.015 187.05 931.015 131.436C931.015 75.8224 977.325 30.7158 1034.48 30.7158C1091.64 30.7158 1137.95 75.8224 1137.95 131.436Z" stroke="#009947"/>
<ellipse cx="219.12" cy="140.562" rx="205.88" ry="204.439" fill="#DDF9EA"/>
<path d="M386.319 103.219C386.319 206.891 301.744 290.939 197.409 290.939C93.0746 290.939 8.5 206.891 8.5 103.219C8.5 -0.45224 93.0746 -84.5 197.409 -84.5C301.744 -84.5 386.319 -0.45224 386.319 103.219Z" stroke="#BDBDBD"/>
<path d="M394.554 112.272C394.554 215.525 309.981 299.236 205.645 299.236C101.308 299.236 16.7354 215.525 16.7354 112.272C16.7354 9.01853 101.308 -74.6934 205.645 -74.6934C309.981 -74.6934 394.554 9.01853 394.554 112.272Z" stroke="#BDBDBD"/>
<g opacity="0.06" filter="url(#filter1_d_2846_1357)">
<ellipse cx="211.879" cy="333.713" rx="113.12" ry="110.287" fill="url(#paint1_diamond_2846_1357)"/>
</g>
<path d="M303.682 313.593C303.682 369.414 257.314 414.686 200.091 414.686C142.868 414.686 96.5 369.414 96.5 313.593C96.5 257.772 142.868 212.5 200.091 212.5C257.314 212.5 303.682 257.772 303.682 313.593Z" stroke="#BDBDBD"/>
<path d="M307.946 318.436C307.946 374.05 261.635 419.157 204.48 419.157C147.325 419.157 101.015 374.05 101.015 318.436C101.015 262.822 147.325 217.716 204.48 217.716C261.635 217.716 307.946 262.822 307.946 318.436Z" stroke="#009947"/>
<g opacity="0.06" filter="url(#filter2_d_2846_1357)">
<ellipse cx="547.879" cy="994.713" rx="113.12" ry="110.287" fill="url(#paint2_diamond_2846_1357)"/>
</g>
<path d="M639.682 974.593C639.682 1030.41 593.314 1075.69 536.091 1075.69C478.868 1075.69 432.5 1030.41 432.5 974.593C432.5 918.772 478.868 873.5 536.091 873.5C593.314 873.5 639.682 918.772 639.682 974.593Z" stroke="#BDBDBD"/>
<path d="M643.946 979.436C643.946 1035.05 597.635 1080.16 540.48 1080.16C483.325 1080.16 437.015 1035.05 437.015 979.436C437.015 923.822 483.325 878.716 540.48 878.716C597.635 878.716 643.946 923.822 643.946 979.436Z" stroke="#009947"/>
<ellipse opacity="0.06" cx="1237.94" cy="261.493" rx="241.06" ry="231.508" fill="#E31E24"/>
<path d="M1434.14 219.258C1434.14 336.743 1335.07 432.016 1212.82 432.016C1090.57 432.016 991.5 336.743 991.5 219.258C991.5 101.773 1090.57 6.5 1212.82 6.5C1335.07 6.5 1434.14 101.773 1434.14 219.258Z" stroke="#BDBDBD"/>
<path d="M1443.22 229.425C1443.22 346.477 1344.27 441.401 1222.17 441.401C1100.07 441.401 1001.12 346.477 1001.12 229.425C1001.12 112.374 1100.07 17.4492 1222.17 17.4492C1344.27 17.4492 1443.22 112.374 1443.22 229.425Z" stroke="#BDBDBD"/>
<g opacity="0.06" filter="url(#filter3_d_2846_1357)">
<ellipse cx="2.87924" cy="633.713" rx="113.12" ry="110.287" fill="url(#paint3_diamond_2846_1357)"/>
</g>
<path d="M94.6818 613.593C94.6818 669.414 48.3141 714.686 -8.90912 714.686C-66.1323 714.686 -112.5 669.414 -112.5 613.593C-112.5 557.772 -66.1323 512.5 -8.90912 512.5C48.3141 512.5 94.6818 557.772 94.6818 613.593Z" stroke="#BDBDBD"/>
<path d="M98.9456 618.436C98.9456 674.05 52.6352 719.157 -4.51987 719.157C-61.675 719.157 -107.985 674.05 -107.985 618.436C-107.985 562.822 -61.675 517.716 -4.51987 517.716C52.6352 517.716 98.9456 562.822 98.9456 618.436Z" stroke="#009947"/>
<ellipse opacity="0.06" cx="419.94" cy="1209.49" rx="241.06" ry="231.508" fill="#E31E24"/>
<path d="M616.136 1167.26C616.136 1284.74 517.068 1380.02 394.818 1380.02C272.569 1380.02 173.5 1284.74 173.5 1167.26C173.5 1049.77 272.569 954.5 394.818 954.5C517.068 954.5 616.136 1049.77 616.136 1167.26Z" stroke="#BDBDBD"/>
<path d="M625.223 1177.43C625.223 1294.48 526.275 1389.4 404.172 1389.4C282.069 1389.4 183.121 1294.48 183.121 1177.43C183.121 1060.37 282.069 965.449 404.172 965.449C526.275 965.449 625.223 1060.37 625.223 1177.43Z" stroke="#BDBDBD"/>
<defs>
<filter id="filter0_d_2846_1357" x="906.759" y="18.4258" width="270.241" height="264.573" filterUnits="userSpaceOnUse" color-interpolation-filters="sRGB">
<feFlood flood-opacity="0" result="BackgroundImageFix"/>
<feColorMatrix in="SourceAlpha" type="matrix" values="0 0 0 0 0 0 0 0 0 0 0 0 0 0 0 0 0 0 127 0" result="hardAlpha"/>
<feOffset dy="4"/>
<feGaussianBlur stdDeviation="11"/>
<feComposite in2="hardAlpha" operator="out"/>
<feColorMatrix type="matrix" values="0 0 0 0 0 0 0 0 0 0 0 0 0 0 0 0 0 0 0.25 0"/>
<feBlend mode="normal" in2="BackgroundImageFix" result="effect1_dropShadow_2846_1357"/>
<feBlend mode="normal" in="SourceGraphic" in2="effect1_dropShadow_2846_1357" result="shape"/>
</filter>
<filter id="filter1_d_2846_1357" x="76.7588" y="205.426" width="270.241" height="264.573" filterUnits="userSpaceOnUse" color-interpolation-filters="sRGB">
<feFlood flood-opacity="0" result="BackgroundImageFix"/>
<feColorMatrix in="SourceAlpha" type="matrix" values="0 0 0 0 0 0 0 0 0 0 0 0 0 0 0 0 0 0 127 0" result="hardAlpha"/>
<feOffset dy="4"/>
<feGaussianBlur stdDeviation="11"/>
<feComposite in2="hardAlpha" operator="out"/>
<feColorMatrix type="matrix" values="0 0 0 0 0 0 0 0 0 0 0 0 0 0 0 0 0 0 0.25 0"/>
<feBlend mode="normal" in2="BackgroundImageFix" result="effect1_dropShadow_2846_1357"/>
<feBlend mode="normal" in="SourceGraphic" in2="effect1_dropShadow_2846_1357" result="shape"/>
</filter>
<filter id="filter2_d_2846_1357" x="412.759" y="866.426" width="270.241" height="264.573" filterUnits="userSpaceOnUse" color-interpolation-filters="sRGB">
<feFlood flood-opacity="0" result="BackgroundImageFix"/>
<feColorMatrix in="SourceAlpha" type="matrix" values="0 0 0 0 0 0 0 0 0 0 0 0 0 0 0 0 0 0 127 0" result="hardAlpha"/>
<feOffset dy="4"/>
<feGaussianBlur stdDeviation="11"/>
<feComposite in2="hardAlpha" operator="out"/>
<feColorMatrix type="matrix" values="0 0 0 0 0 0 0 0 0 0 0 0 0 0 0 0 0 0 0.25 0"/>
<feBlend mode="normal" in2="BackgroundImageFix" result="effect1_dropShadow_2846_1357"/>
<feBlend mode="normal" in="SourceGraphic" in2="effect1_dropShadow_2846_1357" result="shape"/>
</filter>
<filter id="filter3_d_2846_1357" x="-132.241" y="505.426" width="270.241" height="264.573" filterUnits="userSpaceOnUse" color-interpolation-filters="sRGB">
<feFlood flood-opacity="0" result="BackgroundImageFix"/>
<feColorMatrix in="SourceAlpha" type="matrix" values="0 0 0 0 0 0 0 0 0 0 0 0 0 0 0 0 0 0 127 0" result="hardAlpha"/>
<feOffset dy="4"/>
<feGaussianBlur stdDeviation="11"/>
<feComposite in2="hardAlpha" operator="out"/>
<feColorMatrix type="matrix" values="0 0 0 0 0 0 0 0 0 0 0 0 0 0 0 0 0 0 0.25 0"/>
<feBlend mode="normal" in2="BackgroundImageFix" result="effect1_dropShadow_2846_1357"/>
<feBlend mode="normal" in="SourceGraphic" in2="effect1_dropShadow_2846_1357" result="shape"/>
</filter>
<radialGradient id="paint0_diamond_2846_1357" cx="0" cy="0" r="1" gradientUnits="userSpaceOnUse" gradientTransform="translate(1041.88 146.713) rotate(90) scale(110.287 113.12)">
<stop stop-color="#2E3135"/>
<stop offset="1" stop-color="#041DFB"/>
</radialGradient>
<radialGradient id="paint1_diamond_2846_1357" cx="0" cy="0" r="1" gradientUnits="userSpaceOnUse" gradientTransform="translate(211.879 333.713) rotate(90) scale(110.287 113.12)">
<stop stop-color="#2E3135"/>
<stop offset="1" stop-color="#041DFB"/>
</radialGradient>
<radialGradient id="paint2_diamond_2846_1357" cx="0" cy="0" r="1" gradientUnits="userSpaceOnUse" gradientTransform="translate(547.879 994.713) rotate(90) scale(110.287 113.12)">
<stop stop-color="#2E3135"/>
<stop offset="1" stop-color="#041DFB"/>
</radialGradient>
<radialGradient id="paint3_diamond_2846_1357" cx="0" cy="0" r="1" gradientUnits="userSpaceOnUse" gradientTransform="translate(2.87924 633.713) rotate(90) scale(110.287 113.12)">
<stop stop-color="#2E3135"/>
<stop offset="1" stop-color="#041DFB"/>
</radialGradient>
</defs>
</svg>
