<svg width="17" height="18" viewBox="0 0 17 18" fill="none" xmlns="http://www.w3.org/2000/svg">
<path fill-rule="evenodd" clip-rule="evenodd" d="M12.3999 1C12.3999 0.447715 11.9522 0 11.3999 0C10.8476 0 10.3999 0.447715 10.3999 1V1.6001H6V1C6 0.447715 5.55228 0 5 0C4.44772 0 4 0.447715 4 1V1.6001H2.6C1.16406 1.6001 0 2.76416 0 4.2001V7.3999V15.4001C0 16.836 1.16406 18.0001 2.6 18.0001H13.8C15.2359 18.0001 16.4 16.836 16.4 15.4001V7.3999V4.2001C16.4 2.76416 15.2359 1.6001 13.8 1.6001H12.3999V1ZM14.4 6.3999V4.2001C14.4 3.86873 14.1314 3.6001 13.8 3.6001H12.3999V4.2C12.3999 4.75229 11.9522 5.2 11.3999 5.2C10.8476 5.2 10.3999 4.75229 10.3999 4.2V3.6001H6V4.2C6 4.75229 5.55228 5.2 5 5.2C4.44772 5.2 4 4.75229 4 4.2V3.6001H2.6C2.26863 3.6001 2 3.86873 2 4.2001V6.3999H14.4ZM2 8.3999H14.4V15.4001C14.4 15.7315 14.1314 16.0001 13.8 16.0001H2.6C2.26863 16.0001 2 15.7315 2 15.4001V8.3999Z" fill="#979797"/>
</svg>
