<svg width="12" height="12" viewBox="0 0 12 12" fill="none" xmlns="http://www.w3.org/2000/svg">
<path d="M1.16931 12C0.847747 12 0.572375 11.8854 0.343191 11.6562C0.114397 11.4274 0 11.1523 0 10.8307V2.64555C0 2.32399 0.114397 2.04862 0.343191 1.81944C0.572375 1.59065 0.847747 1.47625 1.16931 1.47625H6.38733L5.21803 2.64555H1.16931V10.8307H9.35445V6.76736L10.5238 5.59805V10.8307C10.5238 11.1523 10.4094 11.4274 10.1806 11.6562C9.95138 11.8854 9.676 12 9.35445 12H1.16931ZM7.7028 1.81242L8.53593 2.63094L4.67722 6.48965V7.32278H5.49574L9.36906 3.44945L10.2022 4.26797L5.99269 8.49208H3.50792V6.00731L7.7028 1.81242ZM10.2022 4.26797L7.7028 1.81242L9.16443 0.350792C9.39829 0.116931 9.67854 0 10.0052 0C10.3314 0 10.6066 0.116931 10.8307 0.350792L11.6492 1.18392C11.8733 1.40804 11.9854 1.68088 11.9854 2.00244C11.9854 2.324 11.8733 2.59683 11.6492 2.82095L10.2022 4.26797Z" fill="#4285F4"/>
</svg>
