<svg width="488" height="667" viewBox="0 0 488 667" fill="none" xmlns="http://www.w3.org/2000/svg">
<path d="M472.958 0.967834H333.565C326.073 0.967834 320 6.97448 320 14.3841V203.631C320 211.04 326.073 217.047 333.565 217.047H472.958C480.45 217.047 486.523 211.04 486.523 203.631V14.3841C486.523 6.97448 480.45 0.967834 472.958 0.967834Z" stroke="#4F4F4F" stroke-miterlimit="10"/>
<path d="M320 20.6929H486.523" stroke="#4F4F4F" stroke-miterlimit="10"/>
<path d="M430.214 158.391L429.814 158.287L429.636 158.659C427.065 164.032 423.339 168.781 418.719 172.573L418.391 172.842L418.603 173.209L423.144 181.072L409.615 188.756L404.857 180.504L404.659 180.161L404.28 180.275C399.249 181.785 393.972 182.324 388.736 181.861L388.317 181.824L388.209 182.23L385.549 192.228L370.479 188.272L373.25 177.853L373.353 177.467L372.999 177.282C368.403 174.873 364.309 171.62 360.935 167.696L360.658 167.374L360.295 167.596L350.36 173.677L342.188 160.513L352.666 154.112L353.002 153.907L352.881 153.532C351.279 148.566 350.644 143.343 351.012 138.142L351.041 137.729L350.64 137.624L341.427 135.207L345.394 120.261L354.823 122.73L355.212 122.832L355.395 122.473C357.612 118.12 360.594 114.195 364.202 110.883L364.497 110.612L364.297 110.265L358.982 101.048L372.501 93.3645L377.605 102.203L377.814 102.564L378.207 102.423C383.127 100.657 388.341 99.8376 393.57 100.009L393.968 100.022L394.07 99.6376L397.249 87.6506L412.319 91.5972L409.263 103.076L409.154 103.485L409.539 103.66C413.879 105.63 417.842 108.33 421.252 111.64L421.53 111.91L421.86 111.709L431.419 105.908L439.593 119.074L430.65 124.546L430.284 124.77L430.451 125.166C432.814 130.772 433.889 136.83 433.597 142.899L433.577 143.305L433.97 143.407L443.375 145.855L439.409 160.799L430.214 158.391Z" stroke="#2E2E2E"/>
<path d="M392.401 149.803C397.9 149.803 402.357 145.387 402.357 139.94C402.357 134.493 397.9 130.078 392.401 130.078C386.903 130.078 382.446 134.493 382.446 139.94C382.446 145.387 386.903 149.803 392.401 149.803Z" stroke="#2E2E2E" stroke-linecap="round" stroke-linejoin="round"/>
<path d="M454.987 71.7002L454.588 71.5974L454.411 71.9683C453.099 74.7071 451.202 77.1303 448.852 79.0696L448.525 79.339L448.737 79.7054L450.967 83.5656L444.39 87.298L442.054 83.2418L441.857 82.8987L441.477 83.0124C438.905 83.7838 436.208 84.0594 433.531 83.8245L433.112 83.7878L433.004 84.1937L431.689 89.1208L424.371 87.2012L425.745 82.058L425.849 81.6707L425.493 81.4855C423.139 80.2594 421.041 78.5996 419.313 76.595L419.036 76.2734L418.674 76.4948L413.739 79.511L409.766 73.1194L415.007 69.9169L415.345 69.7105L415.222 69.3343C414.389 66.7969 414.054 64.1246 414.236 61.4622L414.264 61.0486L413.863 60.9442L409.303 59.7587L411.227 52.5037L415.871 53.7195L416.262 53.8217L416.444 53.4617C417.572 51.233 419.098 49.2254 420.947 47.5358L421.244 47.265L421.043 46.917L418.408 42.3456L424.986 38.6129L427.493 42.9694L427.702 43.3318L428.095 43.1907C430.621 42.285 433.299 41.8666 435.983 41.9578L436.381 41.9713L436.483 41.5865L438.061 35.6486L445.379 37.5681L443.863 43.2726L443.754 43.6816L444.139 43.8564C446.359 44.8631 448.383 46.2469 450.122 47.945L450.401 48.2172L450.733 48.0135L455.44 45.126L459.486 51.4847L455.063 54.2228L454.698 54.4482L454.865 54.8427C456.076 57.7046 456.628 60.7982 456.481 63.8983L456.462 64.3026L456.854 64.4055L461.476 65.6201L459.551 72.878L454.987 71.7002Z" stroke="#2E2E2E"/>
<path d="M440.562 49.3839C443.583 50.5746 446.094 52.7708 447.666 55.5972C449.239 58.4236 449.775 61.7049 449.183 64.8804C448.591 68.0559 446.908 70.9287 444.421 73.008C441.934 75.0873 438.798 76.2441 435.549 76.2807C432.299 76.3173 429.137 75.2316 426.604 73.2089C424.07 71.1862 422.322 68.352 421.658 65.1906C420.994 62.0293 421.455 58.7368 422.962 55.8757C424.47 53.0145 426.93 50.7623 429.923 49.5038" stroke="#2E2E2E" stroke-linecap="round" stroke-linejoin="round"/>
<path d="M435.842 67.3157C438.841 67.3157 441.272 65.1079 441.272 62.3844C441.272 59.661 438.841 57.4532 435.842 57.4532C432.843 57.4532 430.412 59.661 430.412 62.3844C430.412 65.1079 432.843 67.3157 435.842 67.3157Z" stroke="#2E2E2E" stroke-linecap="round" stroke-linejoin="round"/>
<path d="M167 622.702L167.205 644.414C167.204 644.753 167.27 645.089 167.4 645.403C167.53 645.717 167.721 646.002 167.963 646.242C168.204 646.482 168.491 646.673 168.807 646.803C169.123 646.933 169.461 647 169.803 647H202.817C203.065 647 203.306 646.923 203.507 646.78C203.708 646.637 203.859 646.435 203.938 646.202C204.017 645.97 204.021 645.719 203.948 645.484C203.876 645.249 203.731 645.043 203.534 644.894L188.038 633.101C187.638 632.794 187.314 632.401 187.091 631.951C186.868 631.501 186.753 631.007 186.753 630.506L187.004 622L167 622.702Z" fill="#4F4F4F"/>
<path opacity="0.2" d="M167 622.702L167.205 644.414C167.204 644.753 167.27 645.089 167.4 645.403C167.53 645.717 167.721 646.002 167.963 646.242C168.204 646.482 168.491 646.673 168.807 646.803C169.123 646.933 169.461 647 169.803 647H202.817C203.065 647 203.306 646.923 203.507 646.78C203.708 646.637 203.859 646.435 203.938 646.202C204.017 645.97 204.021 645.719 203.948 645.484C203.876 645.249 203.731 645.043 203.534 644.894L188.038 633.101C187.638 632.794 187.314 632.401 187.091 631.951C186.868 631.501 186.753 631.007 186.753 630.506L187.004 622L167 622.702Z" fill="black"/>
<path d="M79.5 637.5V553.5H82.5V637.5H79.5Z" stroke="#4F4F4F"/>
<path d="M184.832 528.893L188.48 621.5H182.675L142.658 506.793C142.957 506.731 143.372 506.649 143.89 506.555C145.027 506.35 146.655 506.091 148.614 505.882C152.536 505.462 157.767 505.24 163.034 506.016C168.304 506.793 173.569 508.564 177.602 512.097C181.62 515.617 184.464 520.928 184.831 528.891C184.832 528.892 184.832 528.892 184.832 528.893Z" fill="white" stroke="#4F4F4F"/>
<path d="M70.187 499.824L123.385 501C123.385 501 128.44 495.905 132.055 455.136C134.421 452.83 137.095 450.869 140 449.31C140 449.31 134.945 420.192 117.604 418L91.6035 419.461C91.6035 419.461 74.2726 417.279 69.9517 439.841L60.2178 487.167C59.907 488.676 59.9291 490.236 60.2826 491.736C60.636 493.236 61.3122 494.639 62.2632 495.847C63.2143 497.054 64.417 498.036 65.7862 498.723C67.1555 499.411 68.6578 499.786 70.187 499.824Z" fill="#363636"/>
<path opacity="0.2" d="M74 451L86.855 482.816C86.855 482.816 93.2872 499.718 109 498.667V501H92.5612C92.5612 501 78.2819 490.944 74 451Z" fill="black"/>
<path opacity="0.2" d="M100 432.503C104.879 435.139 112.967 438.752 117.48 433.918C118.06 433.317 118.569 432.675 119 432C116.185 440.018 105.423 437.027 100 432.503Z" fill="black"/>
<path opacity="0.2" d="M130 433C130.811 437.989 130.827 443.294 130.967 448.451C131.031 452.195 130.994 456.354 130.924 460.118C130.881 461.412 130.859 462.706 130.795 464C130.602 459.525 130.521 453.034 130.43 448.48C130.338 443.926 130.392 437.446 130 433Z" fill="black"/>
<path d="M132.585 455.446L132.629 455.033C134.787 452.956 137.207 451.171 139.826 449.723L143.042 459.314L143.097 459.477L143.241 459.572L167.331 475.518L167.346 475.528L167.361 475.537C169.887 476.958 172.628 477.954 175.476 478.483L175.522 478.492H175.568C177.93 478.492 180.173 479.848 181.868 481.275C182.707 481.981 183.393 482.688 183.869 483.22C184.098 483.475 184.277 483.689 184.401 483.841L181.263 489.496L177.393 485.612L176.583 486.171L178.538 490.5H176.546L174.63 488.222L174.579 488.161L174.511 488.119C172.968 487.158 171.237 487.172 169.94 487.4C169.286 487.514 168.726 487.686 168.329 487.829C168.13 487.901 167.971 487.966 167.86 488.013C167.858 488.014 167.857 488.015 167.855 488.015L147.62 482.708L130.538 473.946C130.896 470.971 131.41 466.323 131.841 462.36C132.065 460.299 132.267 458.422 132.413 457.061C132.485 456.38 132.544 455.828 132.585 455.446Z" fill="white" stroke="#4F4F4F"/>
<path d="M96.5001 417.46V417.457V400.885L116.5 412.945V422.353C115.749 426.131 113.922 427.591 112.36 428.155C111.556 428.445 110.793 428.509 110.229 428.499C109.947 428.494 109.718 428.471 109.561 428.449C109.483 428.438 109.423 428.428 109.385 428.421C109.366 428.417 109.352 428.414 109.343 428.413L109.335 428.411L109.335 428.411L109.335 428.411L109.334 428.411L109.334 428.411L109.28 428.398H109.223C106.592 428.398 104.213 427.252 102.22 425.734C100.228 424.218 98.6589 422.358 97.6611 420.998C96.8959 419.95 96.4931 418.717 96.5001 417.46Z" fill="white" stroke="black"/>
<path d="M96.7721 402.169C96.6557 401.999 96.5675 401.867 96.5088 401.778L96.7085 398.403L100.468 396.119C100.476 396.118 100.484 396.116 100.492 396.114C100.566 396.098 100.672 396.074 100.807 396.039C101.075 395.97 101.455 395.859 101.915 395.691C102.834 395.356 104.075 394.79 105.369 393.868C107.844 392.104 110.494 389.048 111.472 383.867C111.808 384.099 112.263 384.406 112.817 384.763C114.063 385.567 115.81 386.625 117.813 387.64C119.814 388.654 122.081 389.632 124.364 390.269C126.435 390.846 128.547 391.151 130.5 390.931C130.486 394.846 130.159 398.754 129.521 402.622C128.974 405.858 127.811 408.972 126.088 411.807C124.946 413.568 123.254 414.945 121.249 415.741C119.241 416.539 117.022 416.713 114.905 416.238L114.902 416.238C109.587 415.082 104.972 411.461 101.663 408.08C100.013 406.395 98.7009 404.783 97.801 403.592C97.3513 402.997 97.0052 402.508 96.7721 402.169Z" fill="white" stroke="black"/>
<path d="M184.389 622.932L152.838 624.481L127.519 541.635L127.411 541.281H127.041H83.0611C78.4692 541.099 75.244 539.696 72.9718 537.726C70.6919 535.75 69.3339 533.172 68.5402 530.586C67.7463 527.999 67.5239 525.426 67.5019 523.493C67.4909 522.528 67.5298 521.727 67.5713 521.168C67.5921 520.889 67.6134 520.671 67.6295 520.524C67.6375 520.45 67.6442 520.394 67.6487 520.357L67.654 520.316L67.6552 520.306L67.6555 520.305L67.6556 520.304L70.7364 499.51L123.519 500.709L145.132 505.897L145.134 505.897C154.331 508.077 159.288 514.432 161.958 520.288C163.293 523.217 164.051 526.011 164.474 528.075C164.685 529.106 164.813 529.952 164.888 530.539C164.925 530.832 164.949 531.061 164.964 531.215C164.971 531.292 164.976 531.35 164.979 531.388L164.983 531.431L164.983 531.441L164.984 531.443L164.984 531.444L164.984 531.444L164.986 531.479L164.993 531.514L184.389 622.932Z" fill="white" stroke="black"/>
<path opacity="0.2" d="M127 542H137L130.847 554L127 542Z" fill="black"/>
<path d="M156 624.107V644.329C155.999 644.679 156.065 645.026 156.196 645.35C156.327 645.674 156.519 645.969 156.762 646.217C157.005 646.465 157.293 646.662 157.611 646.796C157.928 646.931 158.269 647 158.613 647H191.811C192.059 647 192.302 646.92 192.504 646.773C192.706 646.625 192.858 646.416 192.937 646.176C193.017 645.936 193.021 645.677 192.948 645.434C192.875 645.192 192.73 644.979 192.532 644.825L176.949 632.644C176.547 632.327 176.221 631.921 175.997 631.457C175.773 630.992 175.656 630.481 175.657 629.963V623L156 624.107Z" fill="#363636"/>
<path d="M102.882 542H58.1182C55.2915 542 53 544.462 53 547.5C53 550.538 55.2915 553 58.1182 553H102.882C105.709 553 108 550.538 108 547.5C108 544.462 105.709 542 102.882 542Z" fill="#009947"/>
<path d="M70.572 637.5H93.4C95.8067 637.5 98.1192 638.496 99.8275 640.275C101.423 641.938 102.369 644.157 102.487 646.5H61.5126C61.6306 644.162 62.5727 641.947 64.1628 640.285C65.865 638.507 68.1703 637.508 70.572 637.5Z" stroke="#4F4F4F"/>
<path d="M232.317 645.838L229.975 647.307L145.901 509.019L149.483 509.095L232.317 645.838Z" stroke="#4F4F4F"/>
<path d="M231.1 509.087L145.045 647.309L142.687 645.825L227.533 509.087L231.1 509.087Z" stroke="#4F4F4F"/>
<path d="M206.829 444L178 498H238.91L268 444H206.829Z" fill="#009947"/>
<path opacity="0.3" d="M206.829 444L178 498H238.91L268 444H206.829Z" fill="white"/>
<path d="M156 498V492.136C156 491.835 156.1 491.546 156.277 491.333C156.454 491.12 156.694 491 156.945 491H181L177.901 497.977L156 498Z" fill="#009947"/>
<path d="M134.633 389.905C134.235 390.494 133.68 390.964 133.029 391.261C132.486 391.504 131.914 391.675 131.327 391.771C124.023 393.06 113.266 384.883 113.266 384.883C111.768 395.215 103.433 396.725 103.433 396.725L99.7474 399.034L97.598 400.38V410H85.9272C83.9237 410 82.7177 404.094 82.7177 404.094H81.2297L80.4322 409.971H75.9584C72.2237 405.546 72 397.793 72 397.793C74.0132 382.661 85.616 381.93 85.616 381.93C85.3608 380.497 85.4291 379.026 85.8158 377.623C86.2025 376.219 86.8981 374.918 87.8529 373.811C95.3125 365.692 105.019 373.07 105.019 373.07C118.45 367.905 131.132 378.236 131.132 378.236C138.037 383.334 135.976 388 134.633 389.905Z" fill="#363636"/>
<path d="M94.2823 382C94.2823 382 99.2827 373.166 105 372.39L102.886 371C102.886 371 92.1407 373.831 94.2823 382Z" fill="#009947"/>
<path d="M160.544 483.686L160.546 483.687L166.38 487.99L166.408 488.011L166.439 488.027C167.924 488.829 169.24 489.899 170.321 491.179C170.409 491.304 170.466 491.447 170.489 491.597C170.512 491.752 170.498 491.91 170.447 492.059C170.396 492.207 170.309 492.343 170.194 492.454C170.078 492.565 169.936 492.647 169.78 492.695L169.764 492.7L169.748 492.706C169.411 492.833 169.047 492.88 168.688 492.841C168.328 492.802 167.984 492.679 167.684 492.483L167.102 493.295C167.423 493.547 167.522 493.729 167.55 493.823C167.573 493.9 167.562 493.958 167.525 494.023C167.481 494.101 167.403 494.178 167.318 494.242C167.277 494.272 167.241 494.295 167.217 494.309C167.204 494.316 167.195 494.321 167.191 494.324L167.19 494.324L167.189 494.325L167.189 494.325L167.189 494.325L167.188 494.325C167.188 494.325 167.188 494.325 167.187 494.326C167.187 494.326 167.187 494.326 167.187 494.326C166.655 494.588 165.919 494.475 165.213 494.214C164.877 494.09 164.58 493.943 164.366 493.827C164.26 493.769 164.175 493.72 164.118 493.685C164.09 493.668 164.068 493.655 164.055 493.646L164.04 493.637L164.037 493.635L164.037 493.635L164.037 493.635L164.037 493.635L163.398 493.214L163.269 493.969C163.197 494.396 163.016 494.675 162.771 494.868C162.516 495.069 162.152 495.205 161.677 495.265C160.715 495.388 159.445 495.186 158.136 494.832C156.84 494.481 155.561 493.997 154.601 493.598C154.122 493.398 153.725 493.222 153.449 493.095C153.31 493.031 153.202 492.98 153.129 492.946C153.092 492.928 153.065 492.915 153.046 492.906L153.026 492.896L153.021 492.893L153.02 492.893L153.02 492.893L152.783 492.777L152.554 492.906L146.296 496.425L146.182 496.425C146.021 496.426 145.783 496.426 145.474 496.428C144.858 496.43 143.958 496.434 142.829 496.443C140.571 496.459 137.393 496.492 133.712 496.557C126.351 496.687 116.975 496.945 108.924 497.455C101.083 497.953 95.5548 494.21 91.9647 490.307C90.1688 488.355 88.8648 486.37 88.01 484.871C87.5829 484.123 87.2688 483.498 87.0622 483.061C86.9589 482.843 86.8826 482.672 86.8325 482.557C86.8074 482.499 86.7889 482.456 86.7769 482.427L86.7637 482.395L86.7607 482.388L86.7601 482.386L86.7602 482.386L86.7561 482.376L79.6475 465.694L98.5007 456.653L109.968 477.063L110.077 477.257L110.293 477.306C115.042 478.382 123.812 480.356 131.395 482.061C135.187 482.914 138.682 483.699 141.228 484.272L144.257 484.952L145.085 485.138L145.301 485.186L145.356 485.199L145.37 485.202L145.373 485.203L145.374 485.203C145.374 485.203 145.374 485.203 145.484 484.715L145.374 485.203L145.581 485.249L145.758 485.133C150.034 482.33 153.748 481.993 156.378 482.336C157.697 482.508 158.751 482.853 159.471 483.153C159.831 483.303 160.107 483.441 160.291 483.54C160.383 483.59 160.451 483.63 160.496 483.656C160.518 483.669 160.534 483.679 160.544 483.686Z" fill="white" stroke="#4F4F4F"/>
<path d="M90.316 435C93.6685 441.685 96.9621 449.115 100 455.95C93.118 459.022 86 462.225 79 465C85.5183 461.629 92.4691 458.399 99.1545 455.298L98.9185 455.894C96.0182 449.171 92.8722 441.834 90.316 435Z" fill="#333333"/>
<path d="M112 498.5H263C264.381 498.5 265.5 499.619 265.5 501V506C265.5 507.381 264.381 508.5 263 508.5H112C110.619 508.5 109.5 507.381 109.5 506V501C109.5 499.619 110.619 498.5 112 498.5Z" stroke="#CCCCCC"/>
<path d="M260.5 501H115.5C114.119 501 113 502.119 113 503.5C113 504.881 114.119 506 115.5 506H260.5C261.881 506 263 504.881 263 503.5C263 502.119 261.881 501 260.5 501Z" fill="#D9D9D9"/>
</svg>
