<svg width="143" height="143" viewBox="0 0 143 143" fill="none" xmlns="http://www.w3.org/2000/svg">
<circle cx="71.5" cy="71.5" r="71.5" fill="#FFC9C9"/>
<circle cx="71" cy="72" r="59" fill="#F28D8D"/>
<path d="M89 59.5574C82.155 58.8479 75.2689 58.4824 68.4033 58.4824C64.3333 58.4824 60.2633 58.6974 56.1933 59.1274L52 59.5574" stroke="#C20606" stroke-width="5.5" stroke-linecap="round" stroke-linejoin="round"/>
<path d="M63.3057 57.3855L63.7579 54.569C64.0868 52.5265 64.3334 51 67.8073 51H73.1929C76.6668 51 76.934 52.6125 77.2423 54.5905L77.6946 57.3855" stroke="#C20606" stroke-width="5.5" stroke-linecap="round" stroke-linejoin="round"/>
<path d="M84.5805 66.3516L83.2444 88.002C83.0183 91.3775 82.8333 94.0005 77.0983 94.0005H63.9017C58.1667 94.0005 57.9817 91.3775 57.7555 88.002L56.4194 66.3516" stroke="#C20606" stroke-width="5.5" stroke-linecap="round" stroke-linejoin="round"/>
<path d="M67.0674 82.1758H73.9124" stroke="#C20606" stroke-width="5.5" stroke-linecap="round" stroke-linejoin="round"/>
<path d="M65.3613 73.5742H75.6391" stroke="#C20606" stroke-width="5.5" stroke-linecap="round" stroke-linejoin="round"/>
</svg>
