<svg width="19" height="19" viewBox="0 0 19 19" fill="none" xmlns="http://www.w3.org/2000/svg">
<path d="M15.5444 9.60319H9.68895L12.0553 7.16774C9.69758 4.83592 5.88031 4.74956 3.52259 7.08137C1.16486 9.42183 1.16486 13.1959 3.52259 15.545C5.88031 17.8768 9.69758 17.8768 12.0553 15.545C13.2299 14.3791 13.8171 13.0232 13.8171 11.3132H15.5444C15.5444 13.0232 14.7844 15.2427 13.2644 16.7455C10.233 19.7509 5.31031 19.7509 2.27895 16.7455C-0.743778 13.7486 -0.769687 8.87774 2.26168 5.88092C5.29304 2.8841 10.1553 2.8841 13.1867 5.88092L15.5444 3.4541V9.60319ZM8.20349 7.77228V11.4427L11.2262 13.2391L10.6044 14.2841L6.90804 12.0905V7.77228H8.20349Z" fill="#4285F4"/>
<circle cx="13.8182" cy="5.18182" r="4.18182" fill="#E31E24" stroke="white" stroke-width="2"/>
</svg>
