<?xml version="1.0" encoding="UTF-8"?>
<!DOCTYPE svg PUBLIC "-//W3C//DTD SVG 1.1//EN" "http://www.w3.org/Graphics/SVG/1.1/DTD/svg11.dtd">
<!-- Creator: CorelDRAW X7 -->
<svg xmlns="http://www.w3.org/2000/svg" xml:space="preserve" width="1366px" height="910px" version="1.1" style="shape-rendering:geometricPrecision; text-rendering:geometricPrecision; image-rendering:optimizeQuality; fill-rule:evenodd; clip-rule:evenodd"
viewBox="0 0 385 257"
 xmlns:xlink="http://www.w3.org/1999/xlink">
 <defs>
  <style type="text/css">
   <![CDATA[
    .str2 {stroke:#C3DBE6;stroke-width:0.463}
    .str0 {stroke:#C3DBE6;stroke-width:0.585939}
    .str7 {stroke:#FF7800;stroke-width:0.424306}
    .str3 {stroke:#009933;stroke-width:3.70533}
    .str4 {stroke:red;stroke-width:3.70533}
    .str5 {stroke:#C3DBE6;stroke-width:1.60054}
    .str8 {stroke:#A2C5D2;stroke-width:5.03039}
    .str9 {stroke:#C3DBE6;stroke-width:5.03039}
    .str10 {stroke:#DCECF0;stroke-width:5.03039}
    .str6 {stroke:#C3DBE6;stroke-width:1.17209;stroke-linecap:round;stroke-linejoin:round}
    .str1 {stroke:#C3DBE6;stroke-width:1.75819;stroke-linecap:round;stroke-linejoin:round}
    .str12 {stroke:white;stroke-width:1.93747;stroke-linecap:round;stroke-linejoin:round}
    .str11 {stroke:white;stroke-width:1.30002;stroke-linecap:round;stroke-linejoin:round}
    .fil1 {fill:none}
    .fil19 {fill:#4BB16C}
    .fil6 {fill:#4BB16C}
    .fil8 {fill:#009846}
    .fil12 {fill:#009933}
    .fil21 {fill:#192730}
    .fil18 {fill:#203B53}
    .fil17 {fill:#21323F}
    .fil16 {fill:#2B2F3A}
    .fil11 {fill:#2C4C6A}
    .fil10 {fill:#304A5F}
    .fil20 {fill:#91B9C4}
    .fil4 {fill:#A2C5D2}
    .fil2 {fill:#C3DBE6}
    .fil5 {fill:#DCECF0}
    .fil0 {fill:#EDF5F7}
    .fil13 {fill:red}
    .fil7 {fill:#FF7800}
    .fil9 {fill:#FF9014}
    .fil15 {fill:#FFA980}
    .fil14 {fill:#FFC29F}
    .fil3 {fill:white}
   ]]>
  </style>
 </defs>
 <g id="Layer_x0020_1">
  <metadata id="CorelCorpID_0Corel-Layer"/>
  <g id="_296116984">
   <path class="fil0" d="M37 256c0,0 -34,-20 -30,-62 4,-38 28,-45 44,-91 16,-45 0,-84 44,-97 32,-10 67,37 137,35 70,-1 104,-24 130,7 22,28 -13,52 -10,89 1,20 16,32 20,63 2,14 -1,41 -15,56l-298 0 -22 0z"/>
   <line class="fil1 str0" x1="18" y1="256" x2="372" y2= "256" />
   <path class="fil2" d="M80 63c0,17 -14,31 -31,31 -17,0 -30,-14 -30,-31 0,-16 13,-30 30,-30 17,0 31,14 31,30z"/>
   <path class="fil3" d="M75 63c0,15 -11,26 -26,26 -14,0 -25,-11 -25,-26 0,-14 11,-25 25,-25 15,0 26,11 26,25z"/>
   <path class="fil2" d="M70 63c0,12 -9,21 -21,21 -11,0 -21,-9 -21,-21 0,-11 10,-21 21,-21 12,0 21,10 21,21z"/>
   <path class="fil3" d="M59 63c0,6 -4,10 -10,10 -5,0 -9,-4 -9,-10 0,-5 4,-9 9,-9 6,0 10,4 10,9z"/>
   <path class="fil2" d="M54 63c0,3 -2,5 -5,5 -2,0 -5,-2 -5,-5 0,-2 3,-5 5,-5 3,0 5,3 5,5z"/>
   <polygon class="fil4" points="12,87 7,89 11,90 15,88 "/>
   <polygon class="fil4" points="14,92 10,94 11,90 15,88 "/>
   <path class="fil4" d="M13 90c-1,-1 3,-4 10,-8 7,-4 17,-8 17,-8 0,0 -9,7 -15,10 -7,4 -12,6 -12,6z"/>
   <path class="fil2" d="M11 90c2,-1 5,-2 7,-4 2,-1 5,-3 7,-4 3,-1 5,-3 7,-4 3,-1 5,-3 8,-4 -3,2 -5,3 -7,4 -3,2 -5,3 -8,5 -2,1 -4,2 -7,4 -2,1 -5,2 -7,3z"/>
   <polygon class="fil4" points="28,42 24,38 24,42 28,46 "/>
   <polygon class="fil4" points="24,46 20,43 24,42 28,46 "/>
   <path class="fil4" d="M26 44c0,-1 5,2 10,7 6,5 13,13 13,13 0,0 -9,-6 -14,-11 -6,-5 -10,-9 -9,-9z"/>
   <path class="fil2" d="M24 42c2,2 5,4 7,6 2,1 4,3 6,5 2,2 4,3 6,5 2,2 4,4 6,6 -2,-2 -4,-4 -6,-5 -2,-2 -4,-4 -6,-6 -2,-2 -5,-3 -7,-5 -2,-2 -4,-4 -6,-6z"/>
   <path class="fil2" d="M86 156l0 -112c0,-6 5,-11 11,-11l195 0c6,0 11,5 11,11l0 112c0,6 -5,11 -11,11l-195 0c-6,0 -11,-5 -11,-11z"/>
   <path class="fil3" d="M98 165c-5,0 -9,-4 -9,-9l0 -112c0,-5 4,-9 9,-9l194 0c5,0 9,4 9,9l0 112c0,5 -4,9 -9,9l-194 0z"/>
   <path class="fil4" d="M97 35l195 0c5,0 9,4 9,9l0 7 -213 0 0 -7c0,-5 4,-9 9,-9z"/>
   <path class="fil5" d="M102 43c0,2 -1,2 -2,2 -1,0 -2,0 -2,-2 0,-1 1,-2 2,-2 1,0 2,1 2,2z"/>
   <path class="fil5" d="M114 43c0,2 -1,2 -2,2 -1,0 -2,0 -2,-2 0,-1 1,-2 2,-2 1,0 2,1 2,2z"/>
   <path class="fil5" d="M126 43c0,2 0,2 -2,2 -1,0 -2,0 -2,-2 0,-1 1,-2 2,-2 2,0 2,1 2,2z"/>
   <line class="fil1 str1" x1="100" y1="143" x2="221" y2= "143" />
   <line class="fil1 str1" x1="100" y1="150" x2="194" y2= "150" />
   <line class="fil1 str1" x1="100" y1="157" x2="159" y2= "157" />
   <line class="fil1 str1" x1="238" y1="143" x2="249" y2= "143" />
   <line class="fil1 str1" x1="238" y1="150" x2="249" y2= "150" />
   <line class="fil1 str1" x1="238" y1="157" x2="249" y2= "157" />
   <line class="fil1 str1" x1="258" y1="143" x2="270" y2= "143" />
   <line class="fil1 str1" x1="258" y1="150" x2="270" y2= "150" />
   <line class="fil1 str1" x1="258" y1="157" x2="270" y2= "157" />
   <line class="fil1 str1" x1="279" y1="143" x2="290" y2= "143" />
   <line class="fil1 str1" x1="279" y1="150" x2="290" y2= "150" />
   <line class="fil1 str1" x1="279" y1="157" x2="290" y2= "157" />
   <line class="fil1 str2" x1="289" y1="55" x2="289" y2= "82" />
   <line class="fil1 str3" x1="289" y1="64" x2="289" y2= "76" />
   <line class="fil1 str2" x1="283" y1="60" x2="283" y2= "87" />
   <line class="fil1 str4" x1="283" y1="72" x2="283" y2= "80" />
   <line class="fil1 str2" x1="277" y1="62" x2="277" y2= "89" />
   <line class="fil1 str3" x1="277" y1="76" x2="277" y2= "88" />
   <line class="fil1 str2" x1="271" y1="61" x2="271" y2= "88" />
   <line class="fil1 str3" x1="271" y1="65" x2="271" y2= "81" />
   <line class="fil1 str2" x1="265" y1="70" x2="265" y2= "90" />
   <line class="fil1 str3" x1="265" y1="75" x2="265" y2= "84" />
   <line class="fil1 str2" x1="259" y1="73" x2="259" y2= "97" />
   <line class="fil1 str4" x1="259" y1="79" x2="259" y2= "94" />
   <line class="fil1 str2" x1="253" y1="69" x2="253" y2= "90" />
   <line class="fil1 str3" x1="253" y1="74" x2="253" y2= "85" />
   <line class="fil1 str2" x1="247" y1="60" x2="247" y2= "85" />
   <line class="fil1 str4" x1="247" y1="65" x2="247" y2= "81" />
   <line class="fil1 str2" x1="241" y1="72" x2="241" y2= "92" />
   <line class="fil1 str3" x1="241" y1="77" x2="241" y2= "87" />
   <line class="fil1 str2" x1="236" y1="80" x2="236" y2= "100" />
   <line class="fil1 str4" x1="236" y1="87" x2="236" y2= "94" />
   <line class="fil1 str2" x1="230" y1="75" x2="230" y2= "95" />
   <line class="fil1 str4" x1="230" y1="81" x2="230" y2= "89" />
   <line class="fil1 str2" x1="224" y1="80" x2="224" y2= "105" />
   <line class="fil1 str3" x1="224" y1="87" x2="224" y2= "101" />
   <line class="fil1 str2" x1="218" y1="80" x2="218" y2= "97" />
   <line class="fil1 str4" x1="218" y1="87" x2="218" y2= "94" />
   <line class="fil1 str2" x1="212" y1="78" x2="212" y2= "95" />
   <line class="fil1 str4" x1="212" y1="84" x2="212" y2= "89" />
   <line class="fil1 str2" x1="206" y1="80" x2="206" y2= "114" />
   <line class="fil1 str4" x1="206" y1="87" x2="206" y2= "111" />
   <line class="fil1 str2" x1="200" y1="90" x2="200" y2= "117" />
   <line class="fil1 str3" x1="200" y1="96" x2="200" y2= "110" />
   <line class="fil1 str2" x1="194" y1="91" x2="194" y2= "122" />
   <line class="fil1 str4" x1="194" y1="97" x2="194" y2= "115" />
   <line class="fil1 str2" x1="188" y1="109" x2="188" y2= "133" />
   <line class="fil1 str3" x1="188" y1="113" x2="188" y2= "127" />
   <line class="fil1 str2" x1="182" y1="85" x2="182" y2= "112" />
   <line class="fil1 str3" x1="182" y1="91" x2="182" y2= "109" />
   <line class="fil1 str2" x1="176" y1="87" x2="176" y2= "114" />
   <line class="fil1 str4" x1="176" y1="97" x2="176" y2= "107" />
   <line class="fil1 str2" x1="170" y1="97" x2="170" y2= "124" />
   <line class="fil1 str4" x1="170" y1="108" x2="170" y2= "118" />
   <line class="fil1 str2" x1="164" y1="103" x2="164" y2= "130" />
   <line class="fil1 str4" x1="164" y1="117" x2="164" y2= "124" />
   <line class="fil1 str2" x1="158" y1="100" x2="158" y2= "126" />
   <line class="fil1 str3" x1="158" y1="111" x2="158" y2= "120" />
   <line class="fil1 str2" x1="152" y1="97" x2="152" y2= "124" />
   <line class="fil1 str3" x1="152" y1="107" x2="152" y2= "118" />
   <line class="fil1 str2" x1="146" y1="104" x2="146" y2= "131" />
   <line class="fil1 str4" x1="146" y1="107" x2="146" y2= "124" />
   <line class="fil1 str2" x1="140" y1="92" x2="140" y2= "119" />
   <line class="fil1 str3" x1="140" y1="99" x2="140" y2= "115" />
   <line class="fil1 str2" x1="134" y1="81" x2="134" y2= "108" />
   <line class="fil1 str3" x1="134" y1="88" x2="134" y2= "104" />
   <line class="fil1 str2" x1="128" y1="86" x2="128" y2= "113" />
   <line class="fil1 str3" x1="128" y1="91" x2="128" y2= "107" />
   <line class="fil1 str2" x1="122" y1="80" x2="122" y2= "107" />
   <line class="fil1 str4" x1="122" y1="87" x2="122" y2= "91" />
   <line class="fil1 str2" x1="116" y1="74" x2="116" y2= "101" />
   <line class="fil1 str3" x1="116" y1="81" x2="116" y2= "88" />
   <line class="fil1 str2" x1="110" y1="87" x2="110" y2= "119" />
   <line class="fil1 str4" x1="110" y1="91" x2="110" y2= "113" />
   <line class="fil1 str2" x1="104" y1="105" x2="104" y2= "132" />
   <line class="fil1 str3" x1="104" y1="99" x2="104" y2= "111" />
   <line class="fil1 str2" x1="98" y1="104" x2="98" y2= "131" />
   <line class="fil1 str4" x1="98" y1="108" x2="98" y2= "124" />
   <path class="fil5" d="M354 119l-8 12 -15 0c0,-8 7,-14 15,-14 3,0 5,0 8,2z"/>
   <path class="fil2" d="M361 132c0,3 -1,5 -2,7l-12 -8 8 -11c4,2 6,7 6,12z"/>
   <path class="fil4" d="M358 141c-3,3 -7,6 -12,6 -8,0 -15,-7 -15,-14l15 0 12 8z"/>
   <path class="fil6" d="M355 242c0,0 11,-3 11,-10 -1,-7 -9,-9 -5,-15 5,-6 6,-9 3,-12 -3,-3 3,-6 3,-11 -1,-6 -7,-8 -10,-5 -4,3 -1,7 -3,11 -1,4 -7,5 -8,9 -1,5 4,9 4,12 0,3 -6,7 -6,12 0,4 9,9 11,9z"/>
   <path class="fil7" d="M356 244c0,-4 -1,-9 -1,-13 0,-4 0,-8 1,-12 0,-5 1,-9 1,-13 1,-4 3,-8 5,-12 -2,4 -4,8 -5,12 -1,4 -2,8 -2,13 -1,4 -1,8 -1,12 0,4 1,9 1,13l1 0z"/>
   <path class="fil8" d="M354 251c0,0 -8,-4 -6,-10 2,-5 4,-4 4,-11 0,-7 2,-11 10,-12 8,-1 11,-4 15,-5 4,-1 7,-1 8,2 1,3 0,7 -5,7 -5,1 -8,3 -8,8 -1,5 -3,7 -8,7 -5,1 1,13 -10,14z"/>
   <path class="fil9" d="M353 250c1,-7 3,-14 7,-20 4,-6 10,-10 16,-13 -6,3 -12,8 -15,14 -4,5 -6,12 -6,19l-2 0z"/>
   <path class="fil6" d="M351 244c0,0 -9,-1 -10,-6 -2,-5 2,-7 -3,-9 -5,-1 -8,-1 -9,-5 -1,-5 -2,-8 -6,-10 -4,-2 -1,-8 3,-6 4,2 5,5 11,4 6,0 10,1 9,6 0,4 1,5 5,6 7,3 6,11 3,15 -2,5 -3,5 -3,5z"/>
   <path class="fil7" d="M349 243c0,-4 -1,-7 -2,-10 -1,-3 -3,-6 -5,-9 -2,-2 -5,-5 -7,-7 -3,-2 -6,-4 -9,-5 3,1 6,3 9,5 3,2 5,4 7,7 3,2 5,5 6,8 1,4 2,7 2,11l-1 0z"/>
   <path class="fil10" d="M362 241l-9 0 -9 0c0,0 -1,8 3,15l6 0 6 0c5,-7 3,-15 3,-15z"/>
   <path class="fil11" d="M363 244c0,-2 0,-3 0,-3l-10 0 -10 0c0,0 0,1 0,3l20 0z"/>
   <path class="fil8" d="M35 245c0,-3 5,-11 4,-14 -1,-7 -8,-5 -7,-12 0,-4 -2,-8 -10,-8 -8,1 -10,-2 -14,-3 -4,-1 -7,0 -8,3 -1,2 1,6 6,7 5,0 7,1 8,6 1,5 5,2 9,5 3,2 -2,4 1,9 2,2 9,3 11,7z"/>
   <path class="fil9" d="M33 244c0,-7 -3,-14 -7,-20 -4,-5 -10,-10 -17,-12 7,2 13,6 17,12 5,6 8,13 9,20l-2 0z"/>
   <path class="fil6" d="M42 244c0,0 -12,-2 -12,-9 0,-7 6,-10 0,-15 -5,-6 -5,-9 -2,-13 3,-4 -4,-5 -5,-12 0,-6 6,-8 10,-6 4,3 2,8 4,11 2,4 8,4 10,9 1,4 -1,8 0,12 0,3 4,7 5,12 1,5 -8,10 -10,11z"/>
   <path class="fil7" d="M41 246c0,-4 0,-9 -1,-13 0,-5 -1,-9 -2,-13 0,-4 -2,-9 -3,-13 -2,-4 -4,-8 -6,-11 2,3 4,7 6,11 2,4 3,8 4,13 1,4 2,8 2,13 1,4 1,9 1,13l-1 0z"/>
   <path class="fil8" d="M56 238c2,-6 -3,-4 2,-6 5,-3 7,-3 7,-8 1,-5 2,-8 6,-11 4,-2 0,-8 -4,-6 -4,2 -5,6 -11,6 -7,0 -11,1 -10,7 1,4 0,7 -5,9 -7,4 1,11 3,18 4,-10 11,-4 12,-9z"/>
   <path class="fil9" d="M44 246c0,-4 0,-8 2,-11 1,-4 3,-7 5,-10 2,-3 5,-5 8,-8 2,-2 5,-4 9,-6 -3,2 -6,4 -9,7 -3,2 -5,5 -8,8 -2,3 -3,6 -5,9 -1,4 -1,7 -1,11l-1 0z"/>
   <path class="fil10" d="M31 241l9 0 9 0c0,0 2,8 -2,15l-7 0 -6 0c-4,-7 -3,-15 -3,-15z"/>
   <path class="fil11" d="M30 244c0,-2 0,-3 0,-3l10 0 10 0c0,0 1,1 1,3l-21 0z"/>
   <path class="fil3 str5" d="M319 123l-34 0c-1,0 -2,0 -2,-2l0 -23c0,-1 1,-2 2,-2l34 0c1,0 2,1 2,2l0 23c0,2 -1,2 -2,2z"/>
   <path class="fil1 str6" d="M286 120c2,0 2,-4 5,-4 3,0 3,-6 5,-6 3,0 2,4 5,4 3,0 4,-11 6,-11 3,0 3,5 6,5 2,0 2,-5 5,-5"/>
   <path class="fil2" d="M325 79c-2,0 -4,-3 -4,-5 0,-3 2,-5 4,-5 3,0 5,2 5,5 0,2 -2,5 -5,5zm12 -7l-2 0c-1,0 -1,-1 -1,-1 0,-1 0,-1 -1,-1 0,-1 0,-1 1,-1l1 -2c1,0 1,-1 0,-1l-1 -2c-1,0 -1,0 -2,0l-1 2c-1,0 -1,0 -1,0 -1,-1 -1,-1 -2,-1 0,0 0,0 0,-1l0 -2c0,-1 -1,-1 -1,-1l-3 0c0,0 -1,0 -1,1l0 2c0,1 0,1 0,1 -1,0 -1,0 -2,1 0,0 0,0 -1,0l-1 -2c-1,0 -1,0 -2,0l-1 2c-1,0 -1,1 0,1l1 2c1,0 1,0 0,1 0,0 0,0 0,1 0,0 -1,1 -1,1l-2 0c-1,0 -1,0 -1,1l0 2c0,0 0,1 1,1l2 0c0,0 1,0 1,0 0,1 0,1 0,2 1,0 1,1 0,1l-1 2c-1,0 -1,1 0,1l1 2c1,0 1,0 2,0l1 -2c1,0 1,0 1,0 1,0 1,0 2,0 0,0 0,1 0,1l0 2c0,1 1,1 1,1l3 0c0,0 1,0 1,-1l0 -2c0,0 0,-1 0,-1 1,0 1,0 2,0 0,0 0,0 1,0l1 2c1,0 1,0 2,0l1 -2c1,0 1,-1 0,-1l-1 -2c-1,0 -1,-1 -1,-1 1,-1 1,-1 1,-2 0,0 0,0 1,0l2 0c1,0 1,-1 1,-1l0 -2c0,-1 0,-1 -1,-1z"/>
   <path class="fil2" d="M346 86c-1,0 -3,-1 -3,-3 0,-1 2,-3 3,-3 2,0 3,2 3,3 0,2 -1,3 -3,3zm8 -4l-2 0c0,0 0,0 0,0 -1,-1 -1,-1 -1,-1 0,0 0,-1 0,-1l1 -1c1,0 1,-1 0,-1l-1 -1c0,0 0,0 -1,0l-1 1c0,0 0,0 0,0 -1,0 -1,0 -1,0 0,0 0,0 0,-1l0 -1c0,0 -1,-1 -1,-1l-2 0c0,0 0,1 0,1l0 1c0,1 0,1 -1,1 0,0 0,0 0,0 -1,0 -1,0 -1,0l-1 -1c0,0 -1,0 -1,0l-1 1c0,0 0,1 0,1l1 1c0,0 0,1 0,1 0,0 0,0 0,1 0,0 -1,0 -1,0l-1 0c-1,0 -1,0 -1,1l0 1c0,0 0,1 1,1l1 0c0,0 1,0 1,0 0,0 0,1 0,1 0,0 0,0 0,1l-1 1c0,0 0,0 0,1l1 1c0,0 1,0 1,0l1 -1c0,-1 0,-1 1,-1 0,1 0,1 0,1 1,0 1,0 1,0l0 2c0,0 0,0 0,0l2 0c0,0 1,0 1,0l0 -2c0,0 0,0 0,0 0,0 0,0 1,-1 0,0 0,0 0,1l1 1c1,0 1,0 1,0l1 -1c1,-1 1,-1 0,-1l-1 -1c0,-1 0,-1 0,-1 0,0 0,-1 1,-1 0,0 0,0 0,0l2 0c0,0 0,-1 0,-1l0 -1c0,-1 0,-1 0,-1z"/>
   <path class="fil2" d="M335 59c-1,0 -2,-1 -2,-2 0,-1 1,-2 2,-2 1,0 2,1 2,2 0,1 -1,2 -2,2zm5 -3l-1 0c0,0 -1,0 -1,0 0,0 0,0 0,0 0,-1 0,-1 0,-1l1 -1c0,0 0,0 0,0l-1 -1c0,0 0,0 0,0l-1 1c0,0 0,0 0,0 -1,0 -1,0 -1,0 0,0 0,0 0,-1l0 0c0,-1 0,-1 -1,-1l0 0c-1,0 -1,0 -1,1l0 0c0,1 0,1 0,1 0,0 0,0 -1,0 0,0 0,0 0,0l-1 -1c0,0 0,0 0,0l-1 1c0,0 0,0 0,0l1 1c0,0 0,0 0,1 0,0 0,0 0,0 0,0 -1,0 -1,0l-1 0c0,0 0,0 0,1l0 1c0,0 0,0 0,0l1 0c0,0 1,0 1,0 0,0 0,1 0,1 0,0 0,0 0,0l-1 1c0,0 0,0 0,0l1 1c0,0 0,0 0,0l1 -1c0,0 0,0 0,0 1,0 1,0 1,0 0,1 0,1 0,1l0 1c0,0 0,0 1,0l0 0c1,0 1,0 1,0l0 -1c0,0 0,0 0,-1 0,0 0,0 1,0 0,0 0,0 0,0l1 1c0,0 0,0 0,0l1 -1c0,0 0,0 0,0l-1 -1c0,0 0,0 0,0 0,0 0,-1 0,-1 0,0 1,0 1,0l1 0c0,0 0,0 0,0l0 -1c0,-1 0,-1 0,-1z"/>
   <path class="fil6" d="M207 213c-1,-2 -2,-4 -3,-6 -1,-1 -3,-2 -5,-4 -2,-1 -4,-3 -6,-3 -2,0 -3,0 -4,1 -1,0 -2,2 -2,3 0,1 1,3 2,4 1,0 3,1 4,2 1,2 1,4 2,6 1,1 3,3 4,3 2,1 5,1 6,-1 1,-1 2,-3 2,-5z"/>
   <path class="fil6" d="M207 213c0,-1 -1,-3 0,-5 0,-1 1,-3 2,-4 0,-2 0,-4 1,-6 2,-1 4,-2 6,-1 2,0 3,2 3,4 0,2 -1,3 -1,4 -1,2 -1,5 -1,7 -1,1 -2,3 -4,3 0,1 -1,1 -2,1 0,0 -1,1 -1,1 -2,-1 -2,-3 -3,-4z"/>
   <path class="fil8" d="M211 226c1,-2 2,-3 4,-3 1,0 2,1 3,1 2,0 3,0 4,0 2,0 3,1 3,2 0,1 -1,2 -2,2 -1,1 -2,1 -3,1 -1,0 -2,0 -3,0 -1,0 -2,1 -3,1 -1,1 -2,1 -3,0 -1,-1 -1,-3 0,-4z"/>
   <path class="fil1 str7" d="M208 242c0,0 1,-16 9,-16"/>
   <path class="fil1 str7" d="M208 245c0,0 -2,-24 5,-41"/>
   <path class="fil1 str7" d="M208 231c0,0 0,-16 -14,-26"/>
   <path class="fil10" d="M217 241l-9 0 -9 0c0,0 -2,8 2,15l7 0 6 0c4,-7 3,-15 3,-15z"/>
   <path class="fil11" d="M218 244c0,-2 0,-3 0,-3l-10 0 -10 0c0,0 0,1 -1,3l21 0z"/>
   <polygon class="fil12" points="253,28 242,28 242,11 253,11 "/>
   <polygon class="fil12" points="248,0 238,12 258,12 "/>
   <polygon class="fil13" points="155,57 166,57 166,74 155,74 "/>
   <polygon class="fil13" points="160,85 170,72 150,72 "/>
   <path class="fil1 str8" d="M330 25c0,6 -5,10 -11,10 -5,0 -10,-4 -10,-10 0,-6 5,-11 10,-11 6,0 11,5 11,11z"/>
   <path class="fil1 str9" d="M314 34c-3,-2 -5,-5 -5,-9"/>
   <path class="fil1 str10" d="M309 25c0,-6 5,-11 10,-11"/>
   <path class="fil2" d="M91 26l-6 0c-1,0 -2,0 -2,-1l0 -7c0,-1 1,-1 2,-1l6 0c1,0 2,0 2,1l0 7c0,1 -1,1 -2,1z"/>
   <polyline class="fil1 str11" points="86,22 87,23 90,20 "/>
   <path class="fil2" d="M343 170l-7 0c0,0 -1,-1 -1,-2l0 -7c0,0 1,-1 1,-1l7 0c1,0 2,1 2,1l0 7c0,1 -1,2 -2,2z"/>
   <polyline class="fil1 str11" points="338,165 339,166 342,163 "/>
   <path class="fil2" d="M49 118l-10 0c-1,0 -2,-1 -2,-2l0 -10c0,-1 1,-2 2,-2l10 0c1,0 2,1 2,2l0 10c0,1 -1,2 -2,2z"/>
   <polyline class="fil1 str12" points="40,112 42,114 47,109 "/>
   <polygon class="fil2" points="144,29 140,29 140,25 144,25 "/>
   <polygon class="fil2" points="150,29 146,29 146,23 150,23 "/>
   <polygon class="fil2" points="155,29 151,29 151,20 155,20 "/>
   <polygon class="fil2" points="160,29 157,29 157,16 160,16 "/>
   <polygon class="fil14" points="102,251 96,251 96,241 101,241 "/>
   <polygon class="fil14" points="71,251 65,251 66,242 71,243 "/>
   <polygon class="fil11" points="76,152 65,247 72,247 88,178 95,247 102,247 101,152 "/>
   <path class="fil14" d="M118 117c0,0 1,-2 1,-3 0,-1 0,-3 1,-4 0,-1 1,-2 1,-2 0,0 0,1 0,1 0,1 -1,2 -1,2 0,0 1,-1 3,-2 1,0 4,-1 4,-1 1,0 1,1 0,1 0,0 0,1 -1,1 0,0 1,1 0,1 0,0 0,1 -1,1 -1,1 -3,2 -3,2 0,1 -1,4 -1,4l-3 -1z"/>
   <path class="fil8" d="M81 107c0,0 -7,2 -9,2 -1,1 0,11 2,23 3,12 2,20 2,20l25 0c0,0 1,-38 0,-40 -1,-2 -11,-5 -11,-5l-9 0z"/>
   <path class="fil15" d="M82 98c0,0 1,6 0,8l1 3 3 2 2 -2 1 -2 0 -9 -7 0z"/>
   <path class="fil16" d="M80 94c0,-1 0,-2 0,-3 0,0 1,-1 1,-1 0,-1 0,-1 1,-2 0,0 1,0 1,0 1,0 1,0 2,1 0,0 1,1 1,2 0,1 0,2 0,3 0,1 -1,1 -1,2 -1,1 -1,1 -2,1 -1,0 -2,0 -2,-1 0,0 0,0 0,-1 -1,0 -1,-1 -1,-1z"/>
   <path class="fil14" d="M92 89c0,0 2,13 -2,15 -2,1 -6,0 -7,-6 -1,-6 2,-9 5,-9 3,-1 4,0 4,0z"/>
   <path class="fil14" d="M83 95c0,0 -1,-1 -2,0 -1,1 1,3 2,3l0 -3z"/>
   <path class="fil16" d="M85 91c1,0 1,0 2,0 1,0 2,0 2,1 2,0 3,0 4,0 1,0 3,-1 3,-2 1,-1 1,-2 1,-3 -1,-1 -2,-2 -3,-2 -2,0 -3,0 -4,1 -2,0 -3,1 -5,1 0,0 -1,0 -2,0 0,0 -1,0 -1,1 0,1 0,1 1,2 0,0 1,1 2,1z"/>
   <path class="fil14" d="M74 152c0,0 3,4 4,5 1,1 2,3 2,3l-3 4c0,0 -2,-1 -3,-3 0,-2 -1,-3 -2,-5 -1,-2 -1,-2 -1,-2l3 -2z"/>
   <path class="fil8" d="M72 110c0,0 -4,0 -6,6 -1,7 -3,18 -4,23 0,2 10,19 10,19 0,0 2,-2 4,-3 0,0 -6,-13 -6,-17 0,0 6,-14 6,-19 0,-4 0,-9 -4,-9z"/>
   <path class="fil8" d="M101 112c1,1 6,10 8,15 3,4 3,4 3,4l6 -16c0,0 2,0 4,1 0,0 -4,23 -5,25 0,3 -3,4 -8,-2 -4,-5 -13,-17 -13,-18 -1,-1 -3,-10 5,-9z"/>
   <path class="fil17" d="M96 250l6 0c0,0 0,0 2,2 2,2 7,0 9,4l-17 0c0,0 -2,-3 0,-6z"/>
   <path class="fil17" d="M63 256c-1,-2 1,-4 2,-6 0,-1 6,-2 6,1 1,2 1,5 1,5l-9 0z"/>
   <polygon class="fil18" points="76,165 75,165 80,157 81,158 "/>
   <polygon class="fil18" points="101,154 76,154 76,152 101,152 "/>
   <polygon class="fil18" points="88,178 92,165 89,189 "/>
   <g>
    <path class="fil19" d="M82 106c0,0 1,3 4,5 0,1 -3,3 -4,0 -1,-2 -1,-4 -1,-4l1 -1z"/>
    <path class="fil19" d="M86 111c3,-2 3,-5 3,-5l1 1c0,0 0,3 -1,5 -1,1 -3,0 -3,-1z"/>
    <polygon class="fil19" points="101,129 101,119 103,132 "/>
    <path class="fil19" d="M74 128l1 -6 0 12c0,0 -1,-5 -1,-6z"/>
   </g>
   <path class="fil11" d="M310 255l-11 -50 4 0 9 50c0,1 -2,1 -2,0z"/>
   <path class="fil11" d="M281 255l-11 -50 4 0 9 50c0,1 -2,1 -2,0z"/>
   <path class="fil4" d="M242 255l11 -50 -4 0 -9 50c0,1 2,1 2,0z"/>
   <path class="fil4" d="M314 166l-23 0c-1,0 -3,1 -3,2l-12 31c0,3 1,5 4,5l23 0c1,0 3,-1 3,-2l12 -31c0,-3 -1,-5 -4,-5z"/>
   <path class="fil4" d="M305 207l-59 0c-1,0 -2,-1 -2,-2l0 0c0,0 1,-1 2,-1l59 0c1,0 1,1 1,1l0 0c0,1 0,2 -1,2z"/>
   <path class="fil20" d="M305 207l-24 0c-1,0 -1,-1 -1,-2l0 0c0,0 0,-1 1,-1l24 0c1,0 1,1 1,1l0 0c0,1 0,2 -1,2z"/>
   <path class="fil4" d="M269 255l11 -50 -4 0 -9 50c0,1 2,1 2,0z"/>
   <path class="fil17" d="M288 134c0,0 -4,0 -4,4 0,3 0,5 -1,9 -2,4 -3,9 3,9 7,1 9,0 11,2 2,2 9,-3 7,-8 -3,-4 -4,-6 -3,-10 1,-3 -1,-7 -5,-8 -3,-1 -6,-1 -8,2z"/>
   <path class="fil6" d="M286 155c0,0 1,3 -1,11 -3,9 -4,11 -6,13 -1,1 -16,1 -16,1l0 -4 13 -2c0,0 2,-8 4,-13 0,-2 1,-7 3,-8 2,-1 3,2 3,2z"/>
   <path class="fil6" d="M303 169c-1,5 -2,17 -2,17l-18 0c0,0 0,-7 0,-11 -1,-1 -1,-2 -1,-2 -1,-2 -3,-4 -3,-6 0,-1 0,-2 1,-2 0,-3 2,-10 3,-12 2,-1 9,-1 9,-1 0,0 10,0 12,2 1,0 2,1 2,2 0,4 -3,10 -3,13z"/>
   <path class="fil8" d="M300 171c0,0 -13,1 -17,4 -1,-1 -1,-2 -1,-2 -1,-2 -3,-4 -3,-6 1,1 4,4 9,4 10,0 12,0 12,0z"/>
   <path class="fil8" d="M303 169c-1,5 -2,17 -2,17l1 -28 4 -2c0,4 -3,10 -3,13z"/>
   <path class="fil14" d="M296 176c0,0 -8,1 -11,1 0,0 -2,-1 -4,-1 -2,0 -4,2 -5,4l20 0 0 -4z"/>
   <path class="fil6" d="M305 154c0,0 3,5 4,11 2,6 4,13 2,14 -2,2 -15,1 -15,1l0 -4 10 -2c0,0 -4,-9 -5,-11 0,-2 -1,-7 1,-8 2,-1 3,-1 3,-1z"/>
   <polygon class="fil14" points="257,251 254,251 254,247 257,246 "/>
   <path class="fil21" d="M257 251c0,0 1,1 1,4 0,1 -3,1 -8,1l-4 0c-1,0 -1,-1 -1,-1 1,-1 1,-1 2,-1 5,-2 7,-3 7,-3l3 0z"/>
   <path class="fil18" d="M293 186c0,1 3,6 2,12 0,3 -3,6 -10,6 -9,0 -23,0 -26,0 -1,0 -2,0 -1,4 2,8 0,23 0,42l-4 0c0,0 -4,-20 -5,-30 -3,-15 -6,-21 0,-24 7,-3 34,-10 34,-10l10 0z"/>
   <polygon class="fil14" points="266,251 263,251 262,247 266,246 "/>
   <path class="fil17" d="M266 251c0,0 1,1 0,4 0,1 -3,1 -7,1l-4 0c-1,0 -2,-1 -1,-1 0,-1 1,-1 1,-1 5,-2 8,-3 8,-3l3 0z"/>
   <path class="fil11" d="M301 186c0,1 3,6 2,12 0,3 -3,6 -10,6 -9,0 -23,0 -26,0 -1,0 -2,0 -1,4 2,8 1,23 0,42l-4 0c0,0 -4,-20 -6,-30 -2,-15 -5,-21 1,-24 7,-3 32,-10 32,-10l12 0z"/>
   <path class="fil14" d="M287 152c0,0 0,4 3,6 0,0 5,-3 7,-6 0,0 -5,0 -10,0z"/>
   <path class="fil14" d="M288 152c0,0 2,0 2,-2 0,-1 0,-4 0,-4l5 0c0,0 -1,5 0,6 1,1 1,1 1,1 0,0 -7,1 -8,-1z"/>
   <path class="fil15" d="M290 150c0,0 3,0 5,-1l0 -3 -5 1 0 3z"/>
   <path class="fil14" d="M287 136c0,0 -5,12 1,13 7,2 8,-5 8,-5 0,0 2,0 2,-2 0,-1 -2,0 -2,0 0,0 2,-6 -2,-7 -4,-2 -7,-1 -7,1z"/>
   <path class="fil17" d="M287 134c0,0 2,7 9,8 0,0 2,-5 1,-7 -2,-2 -8,-4 -10,-1z"/>
   <path class="fil17" d="M280 179l-29 0 -7 -20c-1,-1 0,-2 1,-2l27 0c0,0 1,1 1,1l7 21z"/>
   <path class="fil17" d="M298 181l-30 0c0,0 0,-1 0,-1l0 0c0,-1 0,-1 0,-1l30 0c1,0 1,0 1,1l0 0c0,0 0,1 -1,1z"/>
   <path class="fil17" d="M280 181l-29 0c-1,0 -1,-1 -1,-1l0 0c0,-1 0,-1 1,-1l29 0c1,0 1,0 1,1l0 0c0,0 0,1 -1,1z"/>
   <path class="fil11" d="M350 255l-16 -73 6 0 13 73c0,1 -3,1 -3,0z"/>
   <path class="fil11" d="M183 255l-17 -73 7 0 12 73c0,1 -2,1 -2,0z"/>
   <path class="fil2" d="M117 255l17 -73 -6 0 -13 73c0,1 2,1 2,0z"/>
   <path class="fil2" d="M277 255l16 -73 -6 0 -13 73c0,1 3,1 3,0z"/>
   <path class="fil4" d="M116 184l237 0c1,0 1,-1 1,-2l0 0c0,-1 0,-1 -1,-1l-237 0c0,0 -1,0 -1,1l0 0c0,1 1,2 1,2z"/>
   <path class="fil20" d="M300 184l53 0c1,0 1,-1 1,-2l0 0c0,-1 0,-1 -1,-1l-53 0c-1,0 -2,0 -2,1l0 0c0,1 1,2 2,2z"/>
   <path class="fil17" d="M167 179l29 0 8 -20c0,-1 -1,-2 -2,-2l-27 0c0,0 -1,1 -1,1l-7 21z"/>
   <path class="fil17" d="M149 181l30 0c0,0 1,-1 1,-1l0 0c0,-1 -1,-1 -1,-1l-30 0c0,0 -1,0 -1,1l0 0c0,0 1,1 1,1z"/>
   <path class="fil17" d="M167 181l29 0c1,0 1,-1 1,-1l0 0c0,-1 0,-1 -1,-1l-29 0c-1,0 -1,0 -1,1l0 0c0,0 0,1 1,1z"/>
  </g>
 </g>
</svg>
