<svg width="12" height="13" viewBox="0 0 12 13" fill="none" xmlns="http://www.w3.org/2000/svg">
<path d="M4.5 9.3273L8.7 6.5193L4.5 3.7113V9.3273ZM6 12.7593C5.17 12.7593 4.39 12.5954 3.66 12.2676C2.93 11.9402 2.295 11.4957 1.755 10.9341C1.215 10.3725 0.7876 9.7121 0.4728 8.9529C0.1576 8.1937 0 7.3825 0 6.5193C0 5.6561 0.1576 4.8449 0.4728 4.0857C0.7876 3.3265 1.215 2.6661 1.755 2.1045C2.295 1.5429 2.93 1.09819 3.66 0.770385C4.39 0.442993 5.17 0.279297 6 0.279297C6.83 0.279297 7.61 0.442993 8.34 0.770385C9.07 1.09819 9.705 1.5429 10.245 2.1045C10.785 2.6661 11.2124 3.3265 11.5272 4.0857C11.8424 4.8449 12 5.6561 12 6.5193C12 7.3825 11.8424 8.1937 11.5272 8.9529C11.2124 9.7121 10.785 10.3725 10.245 10.9341C9.705 11.4957 9.07 11.9402 8.34 12.2676C7.61 12.5954 6.83 12.7593 6 12.7593ZM6 11.5113C7.34 11.5113 8.475 11.0277 9.405 10.0605C10.335 9.0933 10.8 7.9129 10.8 6.5193C10.8 5.1257 10.335 3.9453 9.405 2.9781C8.475 2.0109 7.34 1.5273 6 1.5273C4.66 1.5273 3.525 2.0109 2.595 2.9781C1.665 3.9453 1.2 5.1257 1.2 6.5193C1.2 7.9129 1.665 9.0933 2.595 10.0605C3.525 11.0277 4.66 11.5113 6 11.5113Z" fill="#FBB03B"/>
</svg>
