<svg width="57" height="46" viewBox="0 0 57 46" fill="none" xmlns="http://www.w3.org/2000/svg">
<path d="M29.1958 10.2931C29.0721 10.6763 29.3122 11.0638 29.7012 11.171L29.7881 11.1949L29.7925 11.1904C30.1519 11.2451 30.5164 11.0472 30.6277 10.7001C31.5789 7.74711 34.5816 5.67319 37.9389 5.67319C38.3406 5.67319 38.687 5.36949 38.687 4.97058C38.687 4.57165 38.3406 4.26797 37.9389 4.26797C33.8029 4.26797 30.3169 6.81258 29.1958 10.2931ZM29.1958 10.2931L29.3386 10.3392M29.1958 10.2931C29.1958 10.2931 29.1958 10.2931 29.1958 10.2932L29.3386 10.3392M29.3386 10.3392C29.2441 10.6316 29.4244 10.9391 29.741 11.0264L29.3386 10.3392Z" fill="#483EA8" stroke="#F9FFF9" stroke-width="0.3"/>
<path d="M46.3123 32.0495H42.7236C42.3933 32.0495 42.1255 31.802 42.1255 31.4969C42.1255 31.1918 42.3933 30.9443 42.7236 30.9443H46.3123C51.2593 30.9443 55.2843 27.2256 55.2843 22.6552C55.2843 18.0849 51.2593 14.3662 46.3123 14.3662H46.226C46.0526 14.3662 45.8877 14.2967 45.774 14.1756C45.6604 14.0544 45.6091 13.8937 45.6339 13.735C45.6873 13.3909 45.7142 13.0451 45.7142 12.7084C45.7142 8.74744 42.2258 5.52452 37.9385 5.52452C36.2705 5.52452 34.6799 6.00608 33.3384 6.91747C33.0436 7.11759 32.6249 7.02878 32.4544 6.72918C28.655 0.0450849 18.7314 -0.852522 13.5865 4.96206C11.4192 7.41166 10.5676 10.5982 11.25 13.7039C11.3252 14.0469 11.0411 14.3666 10.6638 14.3666H10.4241C5.47721 14.3666 1.45218 18.0853 1.45218 22.6557C1.45218 27.226 5.47721 30.9447 10.4241 30.9447H14.0129C14.3431 30.9447 14.611 31.1922 14.611 31.4973C14.611 31.8024 14.3431 32.0499 14.0129 32.0499H10.4241C4.81747 32.0499 0.255859 27.8355 0.255859 22.6556C0.255859 17.621 4.56493 13.4986 9.9546 13.2712C9.44832 10.0491 10.4164 6.79903 12.6603 4.26263C18.1686 -1.96322 28.7249 -1.26538 33.1873 5.67689C34.6109 4.85232 36.2399 4.41976 37.9383 4.41976C43.1326 4.41976 47.2486 8.50431 46.8885 13.2764C52.2285 13.5531 56.4804 17.6538 56.4804 22.6552C56.4804 27.8355 51.9187 32.0495 46.3121 32.0495L46.3123 32.0495Z" fill="#483EA8"/>
<path d="M13.185 31.1863C13.185 38.8979 19.9717 45.1516 28.2884 45.1516C36.6052 45.1516 43.3919 38.8978 43.3919 31.1863C43.3919 23.4747 36.6052 17.2211 28.2884 17.2211C19.9716 17.2211 13.185 23.4748 13.185 31.1863ZM14.6815 31.1863C14.6815 24.2721 20.7743 18.6266 28.2884 18.6266C35.8024 18.6266 41.8953 24.272 41.8953 31.1863C41.8953 38.1006 35.8024 43.7461 28.2884 43.7461C20.7744 43.7461 14.6815 38.1007 14.6815 31.1863Z" fill="#483EA8" stroke="#F9FFF9" stroke-width="0.3"/>
<path d="M27.9721 36.7477C27.9721 37.0648 28.2468 37.3022 28.56 37.3022C28.8731 37.3022 29.1479 37.0652 29.1479 36.7477V26.2288C29.1479 25.9116 28.8732 25.6742 28.56 25.6742C28.2467 25.6742 27.9721 25.9116 27.9721 26.2288V36.7477Z" fill="#483EA8" stroke="#483EA8" stroke-width="0.3"/>
<path d="M31.652 29.8616C31.7674 29.9682 31.9169 30.0199 32.0635 30.0199L28.1488 25.8326L28.1487 25.8327L24.6457 29.0691C24.4103 29.2866 24.4103 29.6442 24.6457 29.8616C24.8742 30.0728 25.2403 30.0729 25.4687 29.8615L28.5603 27.0052L31.652 29.8616Z" fill="#483EA8" stroke="#483EA8" stroke-width="0.3"/>
</svg>
