<svg width="19" height="19" viewBox="0 0 19 19" fill="none" xmlns="http://www.w3.org/2000/svg">
<path d="M13.2706 12.7999L14.3262 11.6126C14.4911 11.4271 14.7781 11.557 14.7781 11.8241V17.219C14.7781 18.2023 14.0689 19 13.1947 19H1.58337C0.709217 19 0 18.2023 0 17.219V4.15842C0 3.17517 0.709217 2.37743 1.58337 2.37743H10.6053C10.8395 2.37743 10.9582 2.69653 10.7933 2.88576L9.73771 4.07308C9.68823 4.12874 9.62226 4.15842 9.54969 4.15842H1.58337V17.219H13.1947V13.0077C13.1947 12.9298 13.2211 12.8556 13.2706 12.7999ZM18.4363 5.31236L9.774 15.0559L6.79199 15.4269C5.92773 15.5345 5.19213 14.7145 5.28779 13.735L5.61766 10.3808L14.28 0.63726C15.0354 -0.21242 16.2559 -0.21242 17.008 0.63726L18.433 2.24015C19.1884 3.08983 19.1884 4.46639 18.4363 5.31236ZM15.1772 6.45887L13.2607 4.30313L7.13175 11.2008L6.89095 13.6236L9.04499 13.3528L15.1772 6.45887ZM17.3148 3.50168L15.8898 1.89879C15.7545 1.74667 15.5335 1.74667 15.4015 1.89879L14.3823 3.04531L16.2988 5.20105L17.3181 4.05453C17.45 3.8987 17.45 3.65381 17.3148 3.50168Z" fill="#BDBDBD"/>
</svg>
