<svg width="20" height="20" viewBox="0 0 20 20" fill="none" xmlns="http://www.w3.org/2000/svg">
<path d="M9.83155 14.233C9.85156 14.2601 9.87712 14.2821 9.90631 14.2972C9.9355 14.3123 9.96754 14.3202 10 14.3202C10.0325 14.3202 10.0645 14.3123 10.0937 14.2972C10.1229 14.2821 10.1484 14.2601 10.1684 14.233L13.1631 10.2074C13.2727 10.0597 13.1738 9.84091 12.9947 9.84091H11.0134V0.227273C11.0134 0.102273 10.9171 0 10.7995 0H9.19519C9.07754 0 8.98128 0.102273 8.98128 0.227273V9.83807H7.00535C6.8262 9.83807 6.72727 10.0568 6.8369 10.2045L9.83155 14.233ZM19.7861 13.2386H18.1818C18.0642 13.2386 17.9679 13.3409 17.9679 13.4659V17.8409H2.03209V13.4659C2.03209 13.3409 1.93583 13.2386 1.81818 13.2386H0.213904C0.0962567 13.2386 0 13.3409 0 13.4659V19.0909C0 19.5938 0.382353 20 0.855615 20H19.1444C19.6176 20 20 19.5938 20 19.0909V13.4659C20 13.3409 19.9037 13.2386 19.7861 13.2386Z" fill="#BDBDBD"/>
</svg>
