<svg width="30" height="30" viewBox="0 0 30 30" fill="none" xmlns="http://www.w3.org/2000/svg">
<path d="M30 24.1414C30 24.8148 29.7643 25.3872 29.2929 25.8586L25.8586 29.2929C25.3872 29.7643 24.8148 30 24.1414 30C23.468 30 22.8956 29.7643 22.4242 29.2929L15 21.8687L7.57576 29.2929C7.10438 29.7643 6.53199 30 5.85859 30C5.18518 30 4.61279 29.7643 4.14141 29.2929L0.707071 25.8586C0.23569 25.3872 0 24.8148 0 24.1414C0 23.468 0.23569 22.8956 0.707071 22.4242L8.13131 15L0.707071 7.57576C0.23569 7.10438 0 6.53199 0 5.85859C0 5.18518 0.23569 4.61279 0.707071 4.14141L4.14141 0.707071C4.61279 0.23569 5.18518 0 5.85859 0C6.53199 0 7.10438 0.23569 7.57576 0.707071L15 8.13131L22.4242 0.707071C22.8956 0.23569 23.468 0 24.1414 0C24.8148 0 25.3872 0.23569 25.8586 0.707071L29.2929 4.14141C29.7643 4.61279 30 5.18518 30 5.85859C30 6.53199 29.7643 7.10438 29.2929 7.57576L21.8687 15L29.2929 22.4242C29.7643 22.8956 30 23.468 30 24.1414Z" fill="#009947"/>
</svg>
