<svg width="32" height="42" viewBox="0 0 32 42" fill="none" xmlns="http://www.w3.org/2000/svg">
<path d="M26.5229 4.48983C23.842 1.80964 20.2634 0.217502 16.4777 0.0206938C12.692 -0.176115 8.96751 1.03636 6.02317 3.42411C3.07884 5.81187 1.12334 9.20562 0.534081 12.9504C-0.0551725 16.6952 0.763594 20.5254 2.83236 23.702L13.4922 40.0667C13.7294 40.4308 14.0537 40.73 14.4358 40.9371C14.8179 41.1442 15.2456 41.2527 15.6802 41.2527C16.1148 41.2527 16.5425 41.1442 16.9246 40.9371C17.3067 40.73 17.631 40.4308 17.8683 40.0667L28.5284 23.702C30.448 20.7553 31.2963 17.2383 30.9312 13.7404C30.5661 10.2426 29.0097 6.97661 26.5229 4.48983ZM26.1645 22.1621L15.6803 38.2566L5.1959 22.1621C1.98668 17.2355 2.67498 10.6425 6.83251 6.48475C7.9944 5.32283 9.37378 4.40114 10.8919 3.77231C12.41 3.14348 14.0371 2.81982 15.6803 2.81982C17.3234 2.81982 18.9505 3.14348 20.4686 3.77231C21.9867 4.40114 23.3661 5.32283 24.528 6.48475C28.6855 10.6425 29.3737 17.2355 26.1645 22.1621Z" fill="#858789"/>
</svg>
