<svg width="19" height="19" viewBox="0 0 19 19" fill="none" xmlns="http://www.w3.org/2000/svg">
<path d="M7.34091 3.16667H11.6591C11.6591 2.64176 11.4316 2.13835 11.0267 1.76718C10.6218 1.39602 10.0726 1.1875 9.5 1.1875C8.92737 1.1875 8.3782 1.39602 7.97329 1.76718C7.56838 2.13835 7.34091 2.64176 7.34091 3.16667ZM6.04545 3.16667C6.04545 2.32681 6.40941 1.52136 7.05727 0.927495C7.70512 0.33363 8.5838 0 9.5 0C10.4162 0 11.2949 0.33363 11.9427 0.927495C12.5906 1.52136 12.9545 2.32681 12.9545 3.16667H18.3523C18.5241 3.16667 18.6888 3.22922 18.8103 3.34057C18.9318 3.45192 19 3.60294 19 3.76042C19 3.91789 18.9318 4.06891 18.8103 4.18026C18.6888 4.29161 18.5241 4.35417 18.3523 4.35417H17.2209L16.1699 15.9149C16.0934 16.7559 15.6749 17.5398 14.9975 18.1113C14.32 18.6827 13.433 18.9999 12.5124 19H6.48764C5.56699 18.9999 4.67999 18.6827 4.00253 18.1113C3.32506 17.5398 2.9066 16.7559 2.83014 15.9149L1.77909 4.35417H0.647727C0.475939 4.35417 0.311187 4.29161 0.189715 4.18026C0.0682424 4.06891 0 3.91789 0 3.76042C0 3.60294 0.0682424 3.45192 0.189715 3.34057C0.311187 3.22922 0.475939 3.16667 0.647727 3.16667H6.04545ZM4.12127 15.8159C4.17066 16.3601 4.44136 16.8674 4.87967 17.2373C5.31799 17.6071 5.89191 17.8124 6.48764 17.8125H12.5124C13.1081 17.8124 13.682 17.6071 14.1203 17.2373C14.5586 16.8674 14.8293 16.3601 14.8787 15.8159L15.922 4.35417H3.07886L4.12127 15.8159ZM7.55682 7.125C7.72861 7.125 7.89336 7.18756 8.01483 7.29891C8.1363 7.41026 8.20455 7.56128 8.20455 7.71875V14.4479C8.20455 14.6054 8.1363 14.7564 8.01483 14.8678C7.89336 14.9791 7.72861 15.0417 7.55682 15.0417C7.38503 15.0417 7.22028 14.9791 7.09881 14.8678C6.97733 14.7564 6.90909 14.6054 6.90909 14.4479V7.71875C6.90909 7.56128 6.97733 7.41026 7.09881 7.29891C7.22028 7.18756 7.38503 7.125 7.55682 7.125ZM12.0909 7.71875C12.0909 7.56128 12.0227 7.41026 11.9012 7.29891C11.7797 7.18756 11.615 7.125 11.4432 7.125C11.2714 7.125 11.1066 7.18756 10.9852 7.29891C10.8637 7.41026 10.7955 7.56128 10.7955 7.71875V14.4479C10.7955 14.6054 10.8637 14.7564 10.9852 14.8678C11.1066 14.9791 11.2714 15.0417 11.4432 15.0417C11.615 15.0417 11.7797 14.9791 11.9012 14.8678C12.0227 14.7564 12.0909 14.6054 12.0909 14.4479V7.71875Z" fill="#E31E24"/>
</svg>
