<svg width="25" height="25" viewBox="0 0 25 25" fill="none" xmlns="http://www.w3.org/2000/svg">
<path d="M24.5438 10.1627H15.2983L19.0347 6.31702C15.312 2.63504 9.2847 2.49867 5.56197 6.18065C1.83925 9.87628 1.83925 15.8356 5.56197 19.5449C9.2847 23.2269 15.312 23.2269 19.0347 19.5449C20.8892 17.7039 21.8165 15.5629 21.8165 12.8628H24.5438C24.5438 15.5629 23.3438 19.0676 20.9438 21.4404C16.1574 26.1861 8.3847 26.1861 3.59834 21.4404C-1.17439 16.7084 -1.21529 9.01715 3.57106 4.28512C8.35742 -0.446916 16.0347 -0.446916 20.821 4.28512L24.5438 0.453125V10.1627ZM12.9529 7.27161V13.0673L17.7256 15.9038L16.7438 17.5539L10.9074 14.0901V7.27161H12.9529Z" fill="#4285F4"/>
</svg>
