<svg width="31" height="31" viewBox="0 0 31 31" fill="none" xmlns="http://www.w3.org/2000/svg">
<path d="M29.7896 3.18664L29.7389 3.15499L23.335 0L16.4229 9.21603L19.603 13.4564C19.5078 15.0555 18.8297 16.5643 17.6969 17.697C16.5641 18.8298 15.0554 19.5079 13.4562 19.6031L9.21596 16.423L0 23.3349L3.12873 29.6853L3.15506 29.7389L3.18679 29.7895C3.35375 30.0586 3.5868 30.2804 3.86373 30.4339C4.14067 30.5874 4.45228 30.6674 4.7689 30.6664H6.42135C9.60526 30.6664 12.758 30.0393 15.6996 28.8209C18.6411 27.6024 21.3139 25.8165 23.5652 23.5652C25.8166 21.3138 27.6025 18.641 28.8209 15.6995C30.0393 12.7579 30.6664 9.60519 30.6664 6.42128V4.76876C30.6674 4.45214 30.5874 4.14053 30.4339 3.86359C30.2804 3.58665 30.0586 3.35361 29.7896 3.18664ZM28.2999 6.42128C28.2999 18.4852 18.4852 28.2999 6.42135 28.2999H5.08425L2.99088 24.0502L9.2164 19.3811L12.6824 21.9805H13.0768C15.4376 21.9778 17.7008 21.0389 19.3701 19.3696C21.0394 17.7003 21.9784 15.437 21.981 13.0763V12.6819L19.3816 9.21596L24.0502 2.99081L28.2999 5.08454V6.42128Z" fill="#858789"/>
</svg>
