<svg width="21" height="19" viewBox="0 0 21 19" fill="none" xmlns="http://www.w3.org/2000/svg">
<path d="M14.6675 12.7999L15.8342 11.6126C16.0165 11.4271 16.3337 11.557 16.3337 11.8241V17.219C16.3337 18.2023 15.5498 19 14.5836 19H1.75004C0.783871 19 0 18.2023 0 17.219V4.15842C0 3.17517 0.783871 2.37743 1.75004 2.37743H11.7216C11.9805 2.37743 12.1117 2.69653 11.9294 2.88576L10.7627 4.07308C10.708 4.12874 10.6351 4.15842 10.5549 4.15842H1.75004V17.219H14.5836V13.0077C14.5836 12.9298 14.6128 12.8556 14.6675 12.7999ZM20.377 5.31236L10.8028 15.0559L7.50693 15.4269C6.5517 15.5345 5.73867 14.7145 5.8444 13.735L6.20899 10.3808L15.7832 0.63726C16.6181 -0.21242 17.9671 -0.21242 18.7983 0.63726L20.3734 2.24015C21.2083 3.08983 21.2083 4.46639 20.377 5.31236ZM16.7748 6.45887L14.6566 4.30313L7.88246 11.2008L7.61631 13.6236L9.99709 13.3528L16.7748 6.45887ZM19.1374 3.50168L17.5624 1.89879C17.4129 1.74667 17.1686 1.74667 17.0228 1.89879L15.8962 3.04531L18.0145 5.20105L19.141 4.05453C19.2869 3.8987 19.2869 3.65381 19.1374 3.50168Z" fill="#4285F4"/>
</svg>
