<svg width="36" height="25" viewBox="0 0 36 25" fill="none" xmlns="http://www.w3.org/2000/svg">
<path d="M35.2485 3.85599C34.8208 2.34738 33.637 1.1642 32.1121 0.745953C29.3044 3.56614e-05 18.0172 3.58417e-05 18.0172 3.58417e-05C18.0172 3.58417e-05 6.75136 -0.0178574 3.91437 0.745953C2.3974 1.16532 1.20791 2.34738 0.784781 3.85599C0.252493 6.71553 -0.0119636 9.60973 0.000415243 12.5174C-0.00521148 15.406 0.258119 18.2957 0.784781 21.1373C1.20791 22.6459 2.3974 23.8291 3.91437 24.2541C6.7221 25 18.0172 25 18.0172 25C18.0172 25 29.2763 25 32.1121 24.2541C33.637 23.8291 34.8208 22.6471 35.2485 21.1373C35.765 18.2957 36.0171 15.406 35.9991 12.5174C36.0171 9.60973 35.7706 6.71553 35.2485 3.85599ZM14.4116 17.8707V7.14049L23.8071 12.5174L14.4116 17.8707Z" fill="#9597A1"/>
</svg>
