<svg width="30" height="30" viewBox="0 0 30 30" fill="none" xmlns="http://www.w3.org/2000/svg">
<path d="M30 11.8667H18.6992L23.2662 7.16667C18.7159 2.66667 11.3487 2.5 6.79843 7C2.24812 11.5167 2.24812 18.8 6.79843 23.3333C11.3487 27.8333 18.7159 27.8333 23.2662 23.3333C25.533 21.0833 26.6664 18.4667 26.6664 15.1667H30C30 18.4667 28.5332 22.75 25.5997 25.65C19.7493 31.45 10.2487 31.45 4.39827 25.65C-1.43546 19.8667 -1.48546 10.4667 4.36493 4.68333C10.2153 -1.1 19.5993 -1.1 25.4497 4.68333L30 0V11.8667ZM15.8324 8.33333V15.4167L21.6661 18.8833L20.466 20.9L13.3322 16.6667V8.33333H15.8324Z" fill="#BDBDBD"/>
</svg>
