<svg width="13" height="13" viewBox="0 0 13 13" fill="none" xmlns="http://www.w3.org/2000/svg">
<path d="M6.83105 0.574219C6.04312 0.574219 5.26291 0.729413 4.53495 1.03094C3.807 1.33247 3.14557 1.77443 2.58841 2.33158C1.4632 3.4568 0.831055 4.98292 0.831055 6.57422C0.831055 8.16552 1.4632 9.69164 2.58841 10.8169C3.14557 11.374 3.807 11.816 4.53495 12.1175C5.26291 12.419 6.04312 12.5742 6.83105 12.5742C8.42235 12.5742 9.94848 11.9421 11.0737 10.8169C12.1989 9.69164 12.8311 8.16552 12.8311 6.57422C12.8311 5.87822 12.7051 5.18822 12.4651 4.54022L11.5051 5.50022C11.5891 5.85422 11.6311 6.21422 11.6311 6.57422C11.6311 7.84726 11.1253 9.06816 10.2252 9.96833C9.32499 10.8685 8.10409 11.3742 6.83105 11.3742C5.55802 11.3742 4.33712 10.8685 3.43694 9.96833C2.53677 9.06816 2.03105 7.84726 2.03105 6.57422C2.03105 5.30118 2.53677 4.08028 3.43694 3.18011C4.33712 2.27993 5.55802 1.77422 6.83105 1.77422C7.19105 1.77422 7.55105 1.81622 7.90506 1.90022L8.87105 0.934219C8.21705 0.700219 7.52705 0.574219 6.83105 0.574219ZM11.0311 0.574219L8.63105 2.97422V3.87422L7.10105 5.40422C7.01105 5.37422 6.92105 5.37422 6.83105 5.37422C6.51279 5.37422 6.20757 5.50065 5.98253 5.72569C5.75748 5.95073 5.63105 6.25596 5.63105 6.57422C5.63105 6.89248 5.75748 7.1977 5.98253 7.42275C6.20757 7.64779 6.51279 7.77422 6.83105 7.77422C7.14931 7.77422 7.45454 7.64779 7.67958 7.42275C7.90463 7.1977 8.03105 6.89248 8.03105 6.57422C8.03105 6.48422 8.03105 6.39422 8.00105 6.30422L9.53106 4.77422H10.4311L12.8311 2.37422H11.0311V0.574219ZM6.83105 2.97422C5.87628 2.97422 4.9606 3.3535 4.28547 4.02863C3.61034 4.70377 3.23105 5.61944 3.23105 6.57422C3.23105 7.529 3.61034 8.44467 4.28547 9.1198C4.9606 9.79494 5.87628 10.1742 6.83105 10.1742C7.78583 10.1742 8.70151 9.79494 9.37664 9.1198C10.0518 8.44467 10.4311 7.529 10.4311 6.57422H9.23106C9.23106 7.21074 8.9782 7.82119 8.52811 8.27128C8.07802 8.72136 7.46757 8.97422 6.83105 8.97422C6.19454 8.97422 5.58409 8.72136 5.134 8.27128C4.68391 7.82119 4.43105 7.21074 4.43105 6.57422C4.43105 5.9377 4.68391 5.32725 5.134 4.87716C5.58409 4.42708 6.19454 4.17422 6.83105 4.17422V2.97422Z" fill="black"/>
</svg>
