<svg width="12" height="12" viewBox="0 0 12 12" fill="none" xmlns="http://www.w3.org/2000/svg">
<path d="M4.8 8.4C4.97 8.4 5.1126 8.3424 5.2278 8.2272C5.3426 8.1124 5.4 7.97 5.4 7.8V4.185C5.4 4.015 5.3426 3.875 5.2278 3.765C5.1126 3.655 4.97 3.6 4.8 3.6C4.63 3.6 4.4876 3.6574 4.3728 3.7722C4.2576 3.8874 4.2 4.03 4.2 4.2V7.815C4.2 7.985 4.2576 8.125 4.3728 8.235C4.4876 8.345 4.63 8.4 4.8 8.4ZM7.2 8.4C7.37 8.4 7.5126 8.3424 7.6278 8.2272C7.7426 8.1124 7.8 7.97 7.8 7.8V4.185C7.8 4.015 7.7426 3.875 7.6278 3.765C7.5126 3.655 7.37 3.6 7.2 3.6C7.03 3.6 6.8876 3.6574 6.7728 3.7722C6.6576 3.8874 6.6 4.03 6.6 4.2V7.815C6.6 7.985 6.6576 8.125 6.7728 8.235C6.8876 8.345 7.03 8.4 7.2 8.4ZM6 12C5.17 12 4.39 11.8424 3.66 11.5272C2.93 11.2124 2.295 10.785 1.755 10.245C1.215 9.705 0.7876 9.07 0.4728 8.34C0.1576 7.61 0 6.83 0 6C0 5.17 0.1576 4.39 0.4728 3.66C0.7876 2.93 1.215 2.295 1.755 1.755C2.295 1.215 2.93 0.7874 3.66 0.4722C4.39 0.1574 5.17 0 6 0C6.83 0 7.61 0.1574 8.34 0.4722C9.07 0.7874 9.705 1.215 10.245 1.755C10.785 2.295 11.2124 2.93 11.5272 3.66C11.8424 4.39 12 5.17 12 6C12 6.83 11.8424 7.61 11.5272 8.34C11.2124 9.07 10.785 9.705 10.245 10.245C9.705 10.785 9.07 11.2124 8.34 11.5272C7.61 11.8424 6.83 12 6 12ZM6 10.8C7.33 10.8 8.4626 10.3326 9.3978 9.3978C10.3326 8.4626 10.8 7.33 10.8 6C10.8 4.67 10.3326 3.5374 9.3978 2.6022C8.4626 1.6674 7.33 1.2 6 1.2C4.67 1.2 3.5376 1.6674 2.6028 2.6022C1.6676 3.5374 1.2 4.67 1.2 6C1.2 7.33 1.6676 8.4626 2.6028 9.3978C3.5376 10.3326 4.67 10.8 6 10.8Z" fill="#009947"/>
</svg>
