<svg width="37" height="37" viewBox="0 0 37 37" fill="none" xmlns="http://www.w3.org/2000/svg">
<path d="M36.2377 18.1189C36.2377 8.10933 28.1216 0 18.1189 0C8.10933 0 0 8.10933 0 18.1189C0 27.1602 6.62358 34.6569 15.2878 36.0147V23.3575H10.6867V18.12H15.2878V14.1259C15.2878 9.58602 17.9886 7.07882 22.1288 7.07882C24.1117 7.07882 26.1874 7.43214 26.1874 7.43214V11.8905H23.8988C21.6521 11.8905 20.9499 13.2891 20.9499 14.7216V18.1189H25.9745L25.1671 23.3564H20.9499V36.0135C29.6074 34.6557 36.2377 27.1591 36.2377 18.1177V18.1189Z" fill="#9597A1"/>
</svg>
