<svg width="37" height="37" viewBox="0 0 37 37" fill="none" xmlns="http://www.w3.org/2000/svg">
<path d="M18.1189 0C13.1933 0 12.5795 0.023784 10.6518 0.105329C8.71627 0.200465 7.40702 0.500596 6.25179 0.949095C5.06033 1.41571 4.04554 2.03523 3.04322 3.04322C2.0341 4.04554 1.40892 5.06033 0.949095 6.25179C0.500596 7.40702 0.200465 8.71627 0.105329 10.6518C0.0181211 12.5806 0 13.1933 0 18.1189C0 23.0444 0.023784 23.6583 0.105329 25.5859C0.200465 27.5158 0.500596 28.8307 0.949095 29.986C1.41571 31.1774 2.03523 32.1922 3.04322 33.1945C4.04554 34.2037 5.06033 34.8288 6.25179 35.2887C7.40702 35.7315 8.72193 36.0373 10.6518 36.1324C12.5806 36.2196 13.1933 36.2377 18.1189 36.2377C23.0444 36.2377 23.6583 36.214 25.5859 36.1324C27.5158 36.0373 28.8307 35.7304 29.986 35.2887C31.1774 34.822 32.1922 34.2025 33.1945 33.1945C34.2037 32.1922 34.8288 31.1831 35.2887 29.986C35.7315 28.8307 36.0373 27.5158 36.1324 25.5859C36.2196 23.6571 36.2377 23.0444 36.2377 18.1189C36.2377 13.1933 36.214 12.5795 36.1324 10.6518C36.0373 8.72193 35.7304 7.40022 35.2887 6.25179C34.822 5.06033 34.2025 4.04554 33.1945 3.04322C32.1922 2.0341 31.1831 1.40892 29.986 0.949095C28.8307 0.500596 27.5158 0.200465 25.5859 0.105329C23.6571 0.0181211 23.0444 0 18.1189 0V0ZM18.1189 3.26181C22.9561 3.26181 23.5337 3.28559 25.4455 3.36713C27.2089 3.44981 28.1693 3.74428 28.8069 3.99345C29.6575 4.32302 30.2521 4.71263 30.8954 5.34913C31.5263 5.97998 31.9159 6.58137 32.2454 7.43193C32.4946 8.06957 32.7891 9.02999 32.8717 10.7934C32.9533 12.7052 32.9771 13.2839 32.9771 18.12C32.9771 22.9561 32.9533 23.5348 32.865 25.4466C32.7698 27.21 32.4753 28.1704 32.2273 28.8081C31.8841 29.6586 31.5013 30.2532 30.8694 30.8965C30.2317 31.5274 29.6247 31.917 28.7809 32.2466C28.1512 32.4957 27.1772 32.7902 25.407 32.8729C23.485 32.9544 22.9187 32.9782 18.069 32.9782C13.2194 32.9782 12.6542 32.9544 10.73 32.8661C8.96657 32.7709 7.99369 32.4765 7.35605 32.2284C6.4953 31.8853 5.90523 31.5025 5.27325 30.8705C4.63561 30.2329 4.23015 29.6258 3.91756 28.782C3.66387 28.1523 3.37393 27.1783 3.27993 25.4081C3.21537 23.5088 3.18479 22.9198 3.18479 18.0928C3.18479 13.2681 3.21537 12.678 3.27993 10.7549C3.37393 8.98469 3.66387 8.01294 3.91756 7.38097C4.23015 6.51908 4.63675 5.93014 5.27325 5.29251C5.90409 4.66166 6.4953 4.25394 7.35605 3.93455C7.99369 3.68652 8.94278 3.39205 10.713 3.30371C12.635 3.23462 13.2013 3.20971 18.0441 3.20971L18.1189 3.26181ZM18.1189 8.81933C12.9759 8.81933 8.81707 12.9838 8.81707 18.1211C8.81707 23.2641 12.9815 27.4229 18.1189 27.4229C23.2619 27.4229 27.4207 23.2585 27.4207 18.1211C27.4207 12.9781 23.2562 8.81933 18.1189 8.81933ZM18.1189 24.1611C14.7801 24.1611 12.0789 21.46 12.0789 18.1211C12.0789 14.7823 14.7801 12.0811 18.1189 12.0811C21.4577 12.0811 24.1589 14.7823 24.1589 18.1211C24.1589 21.46 21.4577 24.1611 18.1189 24.1611ZM29.9701 8.44785C29.9701 9.65177 28.9904 10.6235 27.7922 10.6235C26.5882 10.6235 25.6165 9.65064 25.6165 8.44785C25.6165 7.25072 26.595 6.27671 27.7922 6.27671C28.9893 6.27671 29.9701 7.25072 29.9701 8.44785Z" fill="#9597A1"/>
</svg>
