<svg width="29" height="18" viewBox="0 0 29 18" fill="none" xmlns="http://www.w3.org/2000/svg">
<path d="M9.66667 16.7143C9.66667 16.3733 9.79397 16.0463 10.0206 15.8051C10.2472 15.564 10.5545 15.4286 10.875 15.4286H18.125C18.4455 15.4286 18.7528 15.564 18.9794 15.8051C19.206 16.0463 19.3333 16.3733 19.3333 16.7143C19.3333 17.0553 19.206 17.3823 18.9794 17.6234C18.7528 17.8645 18.4455 18 18.125 18H10.875C10.5545 18 10.2472 17.8645 10.0206 17.6234C9.79397 17.3823 9.66667 17.0553 9.66667 16.7143ZM4.83333 9C4.83333 8.65901 4.96064 8.33198 5.18725 8.09086C5.41385 7.84974 5.7212 7.71429 6.04167 7.71429H22.9583C23.2788 7.71429 23.5861 7.84974 23.8128 8.09086C24.0394 8.33198 24.1667 8.65901 24.1667 9C24.1667 9.34099 24.0394 9.66802 23.8128 9.90914C23.5861 10.1503 23.2788 10.2857 22.9583 10.2857H6.04167C5.7212 10.2857 5.41385 10.1503 5.18725 9.90914C4.96064 9.66802 4.83333 9.34099 4.83333 9ZM0 1.28571C0 0.944722 0.127306 0.617695 0.353913 0.376577C0.580519 0.135459 0.887863 0 1.20833 0H27.7917C28.1121 0 28.4195 0.135459 28.6461 0.376577C28.8727 0.617695 29 0.944722 29 1.28571C29 1.62671 28.8727 1.95373 28.6461 2.19485C28.4195 2.43597 28.1121 2.57143 27.7917 2.57143H1.20833C0.887863 2.57143 0.580519 2.43597 0.353913 2.19485C0.127306 1.95373 0 1.62671 0 1.28571Z" fill="#BDBDBD"/>
</svg>
