<svg width="12" height="12" viewBox="0 0 12 12" fill="none" xmlns="http://www.w3.org/2000/svg">
<path d="M8.3875 1.94804L10.2667 4.06251C10.3458 4.15159 10.3458 4.29693 10.2667 4.38601L5.71667 9.50576L3.78333 9.74722C3.525 9.78004 3.30625 9.53389 3.33542 9.24321L3.55 7.06779L8.1 1.94804C8.17917 1.85896 8.30833 1.85896 8.3875 1.94804ZM11.7625 1.41121L10.7458 0.26724C10.4292 -0.0890799 9.91458 -0.0890799 9.59583 0.26724L8.85833 1.09709C8.77917 1.18617 8.77917 1.33151 8.85833 1.42059L10.7375 3.53507C10.8167 3.62415 10.9458 3.62415 11.025 3.53507L11.7625 2.70522C12.0792 2.34655 12.0792 1.76753 11.7625 1.41121ZM8 8.1133V10.4997H1.33333V2.99824H6.12083C6.1875 2.99824 6.25 2.96777 6.29792 2.91619L7.13125 1.97851C7.28958 1.80035 7.17708 1.49795 6.95417 1.49795H1C0.447917 1.49795 0 2.00195 0 2.62317V10.8748C0 11.496 0.447917 12 1 12H8.33333C8.88542 12 9.33333 11.496 9.33333 10.8748V7.17562C9.33333 6.92479 9.06458 6.80055 8.90625 6.97636L8.07292 7.91405C8.02708 7.96796 8 8.03829 8 8.1133Z" fill="#009947"/>
</svg>
